<mxfile host="app.diagrams.net" modified="2024-06-16T17:54:09.927Z" agent="Mozilla/5.0 (Windows NT 10.0; Win64; x64) AppleWebKit/537.36 (KHTML, like Gecko) Chrome/126.0.0.0 Safari/537.36" etag="VlqVABpHeTE8di57NHA6" version="24.5.4" type="github" pages="4">
  <diagram name="ACME-ERD" id="TTA11Wf1DAsyZJN5kxXx">
    <mxGraphModel dx="1222" dy="636" grid="1" gridSize="10" guides="1" tooltips="1" connect="1" arrows="1" fold="1" page="1" pageScale="1" pageWidth="850" pageHeight="1100" math="0" shadow="0">
      <root>
        <mxCell id="0" />
        <mxCell id="1" parent="0" />
        <mxCell id="RemkKLGsjMiRwoYhnhPB-1" value="CUSTOMER" style="shape=table;startSize=25;container=1;collapsible=0;childLayout=tableLayout;fixedRows=1;rowLines=1;fontStyle=1;align=center;resizeLast=1;fontSize=16;" parent="1" vertex="1">
          <mxGeometry x="823" y="301" width="148" height="181" as="geometry" />
        </mxCell>
        <mxCell id="RemkKLGsjMiRwoYhnhPB-2" style="shape=tableRow;horizontal=0;startSize=0;swimlaneHead=0;swimlaneBody=0;fillColor=none;collapsible=0;dropTarget=0;points=[[0,0.5],[1,0.5]];portConstraint=eastwest;top=0;left=0;right=0;bottom=0;fontSize=16;" parent="RemkKLGsjMiRwoYhnhPB-1" vertex="1">
          <mxGeometry y="25" width="148" height="22" as="geometry" />
        </mxCell>
        <mxCell id="RemkKLGsjMiRwoYhnhPB-3" value="int" style="shape=partialRectangle;connectable=0;fillColor=none;top=0;left=0;bottom=0;right=0;align=left;spacingLeft=2;overflow=hidden;fontSize=16;" parent="RemkKLGsjMiRwoYhnhPB-2" vertex="1">
          <mxGeometry width="48" height="22" as="geometry">
            <mxRectangle width="48" height="22" as="alternateBounds" />
          </mxGeometry>
        </mxCell>
        <mxCell id="RemkKLGsjMiRwoYhnhPB-4" value="CustomerID" style="shape=partialRectangle;connectable=0;fillColor=none;top=0;left=0;bottom=0;right=0;align=left;spacingLeft=2;overflow=hidden;fontSize=16;" parent="RemkKLGsjMiRwoYhnhPB-2" vertex="1">
          <mxGeometry x="48" width="100" height="22" as="geometry">
            <mxRectangle width="100" height="22" as="alternateBounds" />
          </mxGeometry>
        </mxCell>
        <mxCell id="RemkKLGsjMiRwoYhnhPB-5" style="shape=tableRow;horizontal=0;startSize=0;swimlaneHead=0;swimlaneBody=0;fillColor=none;collapsible=0;dropTarget=0;points=[[0,0.5],[1,0.5]];portConstraint=eastwest;top=0;left=0;right=0;bottom=0;fontSize=16;" parent="RemkKLGsjMiRwoYhnhPB-1" vertex="1">
          <mxGeometry y="47" width="148" height="22" as="geometry" />
        </mxCell>
        <mxCell id="RemkKLGsjMiRwoYhnhPB-6" value="varchar" style="shape=partialRectangle;connectable=0;fillColor=none;top=0;left=0;bottom=0;right=0;align=left;spacingLeft=2;overflow=hidden;fontSize=16;" parent="RemkKLGsjMiRwoYhnhPB-5" vertex="1">
          <mxGeometry width="48" height="22" as="geometry">
            <mxRectangle width="48" height="22" as="alternateBounds" />
          </mxGeometry>
        </mxCell>
        <mxCell id="RemkKLGsjMiRwoYhnhPB-7" value="Name" style="shape=partialRectangle;connectable=0;fillColor=none;top=0;left=0;bottom=0;right=0;align=left;spacingLeft=2;overflow=hidden;fontSize=16;" parent="RemkKLGsjMiRwoYhnhPB-5" vertex="1">
          <mxGeometry x="48" width="100" height="22" as="geometry">
            <mxRectangle width="100" height="22" as="alternateBounds" />
          </mxGeometry>
        </mxCell>
        <mxCell id="RemkKLGsjMiRwoYhnhPB-8" style="shape=tableRow;horizontal=0;startSize=0;swimlaneHead=0;swimlaneBody=0;fillColor=none;collapsible=0;dropTarget=0;points=[[0,0.5],[1,0.5]];portConstraint=eastwest;top=0;left=0;right=0;bottom=0;fontSize=16;" parent="RemkKLGsjMiRwoYhnhPB-1" vertex="1">
          <mxGeometry y="69" width="148" height="22" as="geometry" />
        </mxCell>
        <mxCell id="RemkKLGsjMiRwoYhnhPB-9" value="varchar" style="shape=partialRectangle;connectable=0;fillColor=none;top=0;left=0;bottom=0;right=0;align=left;spacingLeft=2;overflow=hidden;fontSize=16;" parent="RemkKLGsjMiRwoYhnhPB-8" vertex="1">
          <mxGeometry width="48" height="22" as="geometry">
            <mxRectangle width="48" height="22" as="alternateBounds" />
          </mxGeometry>
        </mxCell>
        <mxCell id="RemkKLGsjMiRwoYhnhPB-10" value="Email" style="shape=partialRectangle;connectable=0;fillColor=none;top=0;left=0;bottom=0;right=0;align=left;spacingLeft=2;overflow=hidden;fontSize=16;" parent="RemkKLGsjMiRwoYhnhPB-8" vertex="1">
          <mxGeometry x="48" width="100" height="22" as="geometry">
            <mxRectangle width="100" height="22" as="alternateBounds" />
          </mxGeometry>
        </mxCell>
        <mxCell id="RemkKLGsjMiRwoYhnhPB-11" style="shape=tableRow;horizontal=0;startSize=0;swimlaneHead=0;swimlaneBody=0;fillColor=none;collapsible=0;dropTarget=0;points=[[0,0.5],[1,0.5]];portConstraint=eastwest;top=0;left=0;right=0;bottom=0;fontSize=16;" parent="RemkKLGsjMiRwoYhnhPB-1" vertex="1">
          <mxGeometry y="91" width="148" height="22" as="geometry" />
        </mxCell>
        <mxCell id="RemkKLGsjMiRwoYhnhPB-12" value="varchar" style="shape=partialRectangle;connectable=0;fillColor=none;top=0;left=0;bottom=0;right=0;align=left;spacingLeft=2;overflow=hidden;fontSize=16;" parent="RemkKLGsjMiRwoYhnhPB-11" vertex="1">
          <mxGeometry width="48" height="22" as="geometry">
            <mxRectangle width="48" height="22" as="alternateBounds" />
          </mxGeometry>
        </mxCell>
        <mxCell id="RemkKLGsjMiRwoYhnhPB-13" value="PhoneNumber" style="shape=partialRectangle;connectable=0;fillColor=none;top=0;left=0;bottom=0;right=0;align=left;spacingLeft=2;overflow=hidden;fontSize=16;" parent="RemkKLGsjMiRwoYhnhPB-11" vertex="1">
          <mxGeometry x="48" width="100" height="22" as="geometry">
            <mxRectangle width="100" height="22" as="alternateBounds" />
          </mxGeometry>
        </mxCell>
        <mxCell id="RemkKLGsjMiRwoYhnhPB-14" style="shape=tableRow;horizontal=0;startSize=0;swimlaneHead=0;swimlaneBody=0;fillColor=none;collapsible=0;dropTarget=0;points=[[0,0.5],[1,0.5]];portConstraint=eastwest;top=0;left=0;right=0;bottom=0;fontSize=16;" parent="RemkKLGsjMiRwoYhnhPB-1" vertex="1">
          <mxGeometry y="113" width="148" height="22" as="geometry" />
        </mxCell>
        <mxCell id="RemkKLGsjMiRwoYhnhPB-15" value="int" style="shape=partialRectangle;connectable=0;fillColor=none;top=0;left=0;bottom=0;right=0;align=left;spacingLeft=2;overflow=hidden;fontSize=16;" parent="RemkKLGsjMiRwoYhnhPB-14" vertex="1">
          <mxGeometry width="48" height="22" as="geometry">
            <mxRectangle width="48" height="22" as="alternateBounds" />
          </mxGeometry>
        </mxCell>
        <mxCell id="RemkKLGsjMiRwoYhnhPB-16" value="BankID" style="shape=partialRectangle;connectable=0;fillColor=none;top=0;left=0;bottom=0;right=0;align=left;spacingLeft=2;overflow=hidden;fontSize=16;" parent="RemkKLGsjMiRwoYhnhPB-14" vertex="1">
          <mxGeometry x="48" width="100" height="22" as="geometry">
            <mxRectangle width="100" height="22" as="alternateBounds" />
          </mxGeometry>
        </mxCell>
        <mxCell id="RemkKLGsjMiRwoYhnhPB-17" style="shape=tableRow;horizontal=0;startSize=0;swimlaneHead=0;swimlaneBody=0;fillColor=none;collapsible=0;dropTarget=0;points=[[0,0.5],[1,0.5]];portConstraint=eastwest;top=0;left=0;right=0;bottom=0;fontSize=16;" parent="RemkKLGsjMiRwoYhnhPB-1" vertex="1">
          <mxGeometry y="135" width="148" height="22" as="geometry" />
        </mxCell>
        <mxCell id="RemkKLGsjMiRwoYhnhPB-18" value="datetime" style="shape=partialRectangle;connectable=0;fillColor=none;top=0;left=0;bottom=0;right=0;align=left;spacingLeft=2;overflow=hidden;fontSize=16;" parent="RemkKLGsjMiRwoYhnhPB-17" vertex="1">
          <mxGeometry width="48" height="22" as="geometry">
            <mxRectangle width="48" height="22" as="alternateBounds" />
          </mxGeometry>
        </mxCell>
        <mxCell id="RemkKLGsjMiRwoYhnhPB-19" value="CreatedAt" style="shape=partialRectangle;connectable=0;fillColor=none;top=0;left=0;bottom=0;right=0;align=left;spacingLeft=2;overflow=hidden;fontSize=16;" parent="RemkKLGsjMiRwoYhnhPB-17" vertex="1">
          <mxGeometry x="48" width="100" height="22" as="geometry">
            <mxRectangle width="100" height="22" as="alternateBounds" />
          </mxGeometry>
        </mxCell>
        <mxCell id="RemkKLGsjMiRwoYhnhPB-20" style="shape=tableRow;horizontal=0;startSize=0;swimlaneHead=0;swimlaneBody=0;fillColor=none;collapsible=0;dropTarget=0;points=[[0,0.5],[1,0.5]];portConstraint=eastwest;top=0;left=0;right=0;bottom=0;fontSize=16;" parent="RemkKLGsjMiRwoYhnhPB-1" vertex="1">
          <mxGeometry y="157" width="148" height="22" as="geometry" />
        </mxCell>
        <mxCell id="RemkKLGsjMiRwoYhnhPB-21" value="datetime" style="shape=partialRectangle;connectable=0;fillColor=none;top=0;left=0;bottom=0;right=0;align=left;spacingLeft=2;overflow=hidden;fontSize=16;" parent="RemkKLGsjMiRwoYhnhPB-20" vertex="1">
          <mxGeometry width="48" height="22" as="geometry">
            <mxRectangle width="48" height="22" as="alternateBounds" />
          </mxGeometry>
        </mxCell>
        <mxCell id="RemkKLGsjMiRwoYhnhPB-22" value="UpdatedAt" style="shape=partialRectangle;connectable=0;fillColor=none;top=0;left=0;bottom=0;right=0;align=left;spacingLeft=2;overflow=hidden;fontSize=16;" parent="RemkKLGsjMiRwoYhnhPB-20" vertex="1">
          <mxGeometry x="48" width="100" height="22" as="geometry">
            <mxRectangle width="100" height="22" as="alternateBounds" />
          </mxGeometry>
        </mxCell>
        <mxCell id="RemkKLGsjMiRwoYhnhPB-23" value="BANK" style="shape=table;startSize=25;container=1;collapsible=0;childLayout=tableLayout;fixedRows=1;rowLines=1;fontStyle=1;align=center;resizeLast=1;fontSize=16;" parent="1" vertex="1">
          <mxGeometry x="662" y="20" width="148" height="181" as="geometry" />
        </mxCell>
        <mxCell id="RemkKLGsjMiRwoYhnhPB-24" style="shape=tableRow;horizontal=0;startSize=0;swimlaneHead=0;swimlaneBody=0;fillColor=none;collapsible=0;dropTarget=0;points=[[0,0.5],[1,0.5]];portConstraint=eastwest;top=0;left=0;right=0;bottom=0;fontSize=16;" parent="RemkKLGsjMiRwoYhnhPB-23" vertex="1">
          <mxGeometry y="25" width="148" height="22" as="geometry" />
        </mxCell>
        <mxCell id="RemkKLGsjMiRwoYhnhPB-25" value="int" style="shape=partialRectangle;connectable=0;fillColor=none;top=0;left=0;bottom=0;right=0;align=left;spacingLeft=2;overflow=hidden;fontSize=16;" parent="RemkKLGsjMiRwoYhnhPB-24" vertex="1">
          <mxGeometry width="48" height="22" as="geometry">
            <mxRectangle width="48" height="22" as="alternateBounds" />
          </mxGeometry>
        </mxCell>
        <mxCell id="RemkKLGsjMiRwoYhnhPB-26" value="BankID" style="shape=partialRectangle;connectable=0;fillColor=none;top=0;left=0;bottom=0;right=0;align=left;spacingLeft=2;overflow=hidden;fontSize=16;" parent="RemkKLGsjMiRwoYhnhPB-24" vertex="1">
          <mxGeometry x="48" width="100" height="22" as="geometry">
            <mxRectangle width="100" height="22" as="alternateBounds" />
          </mxGeometry>
        </mxCell>
        <mxCell id="RemkKLGsjMiRwoYhnhPB-27" style="shape=tableRow;horizontal=0;startSize=0;swimlaneHead=0;swimlaneBody=0;fillColor=none;collapsible=0;dropTarget=0;points=[[0,0.5],[1,0.5]];portConstraint=eastwest;top=0;left=0;right=0;bottom=0;fontSize=16;" parent="RemkKLGsjMiRwoYhnhPB-23" vertex="1">
          <mxGeometry y="47" width="148" height="22" as="geometry" />
        </mxCell>
        <mxCell id="RemkKLGsjMiRwoYhnhPB-28" value="varchar" style="shape=partialRectangle;connectable=0;fillColor=none;top=0;left=0;bottom=0;right=0;align=left;spacingLeft=2;overflow=hidden;fontSize=16;" parent="RemkKLGsjMiRwoYhnhPB-27" vertex="1">
          <mxGeometry width="48" height="22" as="geometry">
            <mxRectangle width="48" height="22" as="alternateBounds" />
          </mxGeometry>
        </mxCell>
        <mxCell id="RemkKLGsjMiRwoYhnhPB-29" value="BankName" style="shape=partialRectangle;connectable=0;fillColor=none;top=0;left=0;bottom=0;right=0;align=left;spacingLeft=2;overflow=hidden;fontSize=16;" parent="RemkKLGsjMiRwoYhnhPB-27" vertex="1">
          <mxGeometry x="48" width="100" height="22" as="geometry">
            <mxRectangle width="100" height="22" as="alternateBounds" />
          </mxGeometry>
        </mxCell>
        <mxCell id="RemkKLGsjMiRwoYhnhPB-30" style="shape=tableRow;horizontal=0;startSize=0;swimlaneHead=0;swimlaneBody=0;fillColor=none;collapsible=0;dropTarget=0;points=[[0,0.5],[1,0.5]];portConstraint=eastwest;top=0;left=0;right=0;bottom=0;fontSize=16;" parent="RemkKLGsjMiRwoYhnhPB-23" vertex="1">
          <mxGeometry y="69" width="148" height="22" as="geometry" />
        </mxCell>
        <mxCell id="RemkKLGsjMiRwoYhnhPB-31" value="varchar" style="shape=partialRectangle;connectable=0;fillColor=none;top=0;left=0;bottom=0;right=0;align=left;spacingLeft=2;overflow=hidden;fontSize=16;" parent="RemkKLGsjMiRwoYhnhPB-30" vertex="1">
          <mxGeometry width="48" height="22" as="geometry">
            <mxRectangle width="48" height="22" as="alternateBounds" />
          </mxGeometry>
        </mxCell>
        <mxCell id="RemkKLGsjMiRwoYhnhPB-32" value="BankCode" style="shape=partialRectangle;connectable=0;fillColor=none;top=0;left=0;bottom=0;right=0;align=left;spacingLeft=2;overflow=hidden;fontSize=16;" parent="RemkKLGsjMiRwoYhnhPB-30" vertex="1">
          <mxGeometry x="48" width="100" height="22" as="geometry">
            <mxRectangle width="100" height="22" as="alternateBounds" />
          </mxGeometry>
        </mxCell>
        <mxCell id="RemkKLGsjMiRwoYhnhPB-33" style="shape=tableRow;horizontal=0;startSize=0;swimlaneHead=0;swimlaneBody=0;fillColor=none;collapsible=0;dropTarget=0;points=[[0,0.5],[1,0.5]];portConstraint=eastwest;top=0;left=0;right=0;bottom=0;fontSize=16;" parent="RemkKLGsjMiRwoYhnhPB-23" vertex="1">
          <mxGeometry y="91" width="148" height="22" as="geometry" />
        </mxCell>
        <mxCell id="RemkKLGsjMiRwoYhnhPB-34" value="varchar" style="shape=partialRectangle;connectable=0;fillColor=none;top=0;left=0;bottom=0;right=0;align=left;spacingLeft=2;overflow=hidden;fontSize=16;" parent="RemkKLGsjMiRwoYhnhPB-33" vertex="1">
          <mxGeometry width="48" height="22" as="geometry">
            <mxRectangle width="48" height="22" as="alternateBounds" />
          </mxGeometry>
        </mxCell>
        <mxCell id="RemkKLGsjMiRwoYhnhPB-35" value="ContactEmail" style="shape=partialRectangle;connectable=0;fillColor=none;top=0;left=0;bottom=0;right=0;align=left;spacingLeft=2;overflow=hidden;fontSize=16;" parent="RemkKLGsjMiRwoYhnhPB-33" vertex="1">
          <mxGeometry x="48" width="100" height="22" as="geometry">
            <mxRectangle width="100" height="22" as="alternateBounds" />
          </mxGeometry>
        </mxCell>
        <mxCell id="RemkKLGsjMiRwoYhnhPB-36" style="shape=tableRow;horizontal=0;startSize=0;swimlaneHead=0;swimlaneBody=0;fillColor=none;collapsible=0;dropTarget=0;points=[[0,0.5],[1,0.5]];portConstraint=eastwest;top=0;left=0;right=0;bottom=0;fontSize=16;" parent="RemkKLGsjMiRwoYhnhPB-23" vertex="1">
          <mxGeometry y="113" width="148" height="22" as="geometry" />
        </mxCell>
        <mxCell id="RemkKLGsjMiRwoYhnhPB-37" value="varchar" style="shape=partialRectangle;connectable=0;fillColor=none;top=0;left=0;bottom=0;right=0;align=left;spacingLeft=2;overflow=hidden;fontSize=16;" parent="RemkKLGsjMiRwoYhnhPB-36" vertex="1">
          <mxGeometry width="48" height="22" as="geometry">
            <mxRectangle width="48" height="22" as="alternateBounds" />
          </mxGeometry>
        </mxCell>
        <mxCell id="RemkKLGsjMiRwoYhnhPB-38" value="ContactPhone" style="shape=partialRectangle;connectable=0;fillColor=none;top=0;left=0;bottom=0;right=0;align=left;spacingLeft=2;overflow=hidden;fontSize=16;" parent="RemkKLGsjMiRwoYhnhPB-36" vertex="1">
          <mxGeometry x="48" width="100" height="22" as="geometry">
            <mxRectangle width="100" height="22" as="alternateBounds" />
          </mxGeometry>
        </mxCell>
        <mxCell id="RemkKLGsjMiRwoYhnhPB-39" style="shape=tableRow;horizontal=0;startSize=0;swimlaneHead=0;swimlaneBody=0;fillColor=none;collapsible=0;dropTarget=0;points=[[0,0.5],[1,0.5]];portConstraint=eastwest;top=0;left=0;right=0;bottom=0;fontSize=16;" parent="RemkKLGsjMiRwoYhnhPB-23" vertex="1">
          <mxGeometry y="135" width="148" height="22" as="geometry" />
        </mxCell>
        <mxCell id="RemkKLGsjMiRwoYhnhPB-40" value="datetime" style="shape=partialRectangle;connectable=0;fillColor=none;top=0;left=0;bottom=0;right=0;align=left;spacingLeft=2;overflow=hidden;fontSize=16;" parent="RemkKLGsjMiRwoYhnhPB-39" vertex="1">
          <mxGeometry width="48" height="22" as="geometry">
            <mxRectangle width="48" height="22" as="alternateBounds" />
          </mxGeometry>
        </mxCell>
        <mxCell id="RemkKLGsjMiRwoYhnhPB-41" value="CreatedAt" style="shape=partialRectangle;connectable=0;fillColor=none;top=0;left=0;bottom=0;right=0;align=left;spacingLeft=2;overflow=hidden;fontSize=16;" parent="RemkKLGsjMiRwoYhnhPB-39" vertex="1">
          <mxGeometry x="48" width="100" height="22" as="geometry">
            <mxRectangle width="100" height="22" as="alternateBounds" />
          </mxGeometry>
        </mxCell>
        <mxCell id="RemkKLGsjMiRwoYhnhPB-42" style="shape=tableRow;horizontal=0;startSize=0;swimlaneHead=0;swimlaneBody=0;fillColor=none;collapsible=0;dropTarget=0;points=[[0,0.5],[1,0.5]];portConstraint=eastwest;top=0;left=0;right=0;bottom=0;fontSize=16;" parent="RemkKLGsjMiRwoYhnhPB-23" vertex="1">
          <mxGeometry y="157" width="148" height="22" as="geometry" />
        </mxCell>
        <mxCell id="RemkKLGsjMiRwoYhnhPB-43" value="datetime" style="shape=partialRectangle;connectable=0;fillColor=none;top=0;left=0;bottom=0;right=0;align=left;spacingLeft=2;overflow=hidden;fontSize=16;" parent="RemkKLGsjMiRwoYhnhPB-42" vertex="1">
          <mxGeometry width="48" height="22" as="geometry">
            <mxRectangle width="48" height="22" as="alternateBounds" />
          </mxGeometry>
        </mxCell>
        <mxCell id="RemkKLGsjMiRwoYhnhPB-44" value="UpdatedAt" style="shape=partialRectangle;connectable=0;fillColor=none;top=0;left=0;bottom=0;right=0;align=left;spacingLeft=2;overflow=hidden;fontSize=16;" parent="RemkKLGsjMiRwoYhnhPB-42" vertex="1">
          <mxGeometry x="48" width="100" height="22" as="geometry">
            <mxRectangle width="100" height="22" as="alternateBounds" />
          </mxGeometry>
        </mxCell>
        <mxCell id="RemkKLGsjMiRwoYhnhPB-45" value="BILLER" style="shape=table;startSize=25;container=1;collapsible=0;childLayout=tableLayout;fixedRows=1;rowLines=1;fontStyle=1;align=center;resizeLast=1;fontSize=16;" parent="1" vertex="1">
          <mxGeometry x="209" y="301" width="148" height="181" as="geometry" />
        </mxCell>
        <mxCell id="RemkKLGsjMiRwoYhnhPB-46" style="shape=tableRow;horizontal=0;startSize=0;swimlaneHead=0;swimlaneBody=0;fillColor=none;collapsible=0;dropTarget=0;points=[[0,0.5],[1,0.5]];portConstraint=eastwest;top=0;left=0;right=0;bottom=0;fontSize=16;" parent="RemkKLGsjMiRwoYhnhPB-45" vertex="1">
          <mxGeometry y="25" width="148" height="22" as="geometry" />
        </mxCell>
        <mxCell id="RemkKLGsjMiRwoYhnhPB-47" value="int" style="shape=partialRectangle;connectable=0;fillColor=none;top=0;left=0;bottom=0;right=0;align=left;spacingLeft=2;overflow=hidden;fontSize=16;" parent="RemkKLGsjMiRwoYhnhPB-46" vertex="1">
          <mxGeometry width="48" height="22" as="geometry">
            <mxRectangle width="48" height="22" as="alternateBounds" />
          </mxGeometry>
        </mxCell>
        <mxCell id="RemkKLGsjMiRwoYhnhPB-48" value="BillerID" style="shape=partialRectangle;connectable=0;fillColor=none;top=0;left=0;bottom=0;right=0;align=left;spacingLeft=2;overflow=hidden;fontSize=16;" parent="RemkKLGsjMiRwoYhnhPB-46" vertex="1">
          <mxGeometry x="48" width="100" height="22" as="geometry">
            <mxRectangle width="100" height="22" as="alternateBounds" />
          </mxGeometry>
        </mxCell>
        <mxCell id="RemkKLGsjMiRwoYhnhPB-49" style="shape=tableRow;horizontal=0;startSize=0;swimlaneHead=0;swimlaneBody=0;fillColor=none;collapsible=0;dropTarget=0;points=[[0,0.5],[1,0.5]];portConstraint=eastwest;top=0;left=0;right=0;bottom=0;fontSize=16;" parent="RemkKLGsjMiRwoYhnhPB-45" vertex="1">
          <mxGeometry y="47" width="148" height="22" as="geometry" />
        </mxCell>
        <mxCell id="RemkKLGsjMiRwoYhnhPB-50" value="varchar" style="shape=partialRectangle;connectable=0;fillColor=none;top=0;left=0;bottom=0;right=0;align=left;spacingLeft=2;overflow=hidden;fontSize=16;" parent="RemkKLGsjMiRwoYhnhPB-49" vertex="1">
          <mxGeometry width="48" height="22" as="geometry">
            <mxRectangle width="48" height="22" as="alternateBounds" />
          </mxGeometry>
        </mxCell>
        <mxCell id="RemkKLGsjMiRwoYhnhPB-51" value="BillerName" style="shape=partialRectangle;connectable=0;fillColor=none;top=0;left=0;bottom=0;right=0;align=left;spacingLeft=2;overflow=hidden;fontSize=16;" parent="RemkKLGsjMiRwoYhnhPB-49" vertex="1">
          <mxGeometry x="48" width="100" height="22" as="geometry">
            <mxRectangle width="100" height="22" as="alternateBounds" />
          </mxGeometry>
        </mxCell>
        <mxCell id="RemkKLGsjMiRwoYhnhPB-52" style="shape=tableRow;horizontal=0;startSize=0;swimlaneHead=0;swimlaneBody=0;fillColor=none;collapsible=0;dropTarget=0;points=[[0,0.5],[1,0.5]];portConstraint=eastwest;top=0;left=0;right=0;bottom=0;fontSize=16;" parent="RemkKLGsjMiRwoYhnhPB-45" vertex="1">
          <mxGeometry y="69" width="148" height="22" as="geometry" />
        </mxCell>
        <mxCell id="RemkKLGsjMiRwoYhnhPB-53" value="varchar" style="shape=partialRectangle;connectable=0;fillColor=none;top=0;left=0;bottom=0;right=0;align=left;spacingLeft=2;overflow=hidden;fontSize=16;" parent="RemkKLGsjMiRwoYhnhPB-52" vertex="1">
          <mxGeometry width="48" height="22" as="geometry">
            <mxRectangle width="48" height="22" as="alternateBounds" />
          </mxGeometry>
        </mxCell>
        <mxCell id="RemkKLGsjMiRwoYhnhPB-54" value="BillerType" style="shape=partialRectangle;connectable=0;fillColor=none;top=0;left=0;bottom=0;right=0;align=left;spacingLeft=2;overflow=hidden;fontSize=16;" parent="RemkKLGsjMiRwoYhnhPB-52" vertex="1">
          <mxGeometry x="48" width="100" height="22" as="geometry">
            <mxRectangle width="100" height="22" as="alternateBounds" />
          </mxGeometry>
        </mxCell>
        <mxCell id="RemkKLGsjMiRwoYhnhPB-55" style="shape=tableRow;horizontal=0;startSize=0;swimlaneHead=0;swimlaneBody=0;fillColor=none;collapsible=0;dropTarget=0;points=[[0,0.5],[1,0.5]];portConstraint=eastwest;top=0;left=0;right=0;bottom=0;fontSize=16;" parent="RemkKLGsjMiRwoYhnhPB-45" vertex="1">
          <mxGeometry y="91" width="148" height="22" as="geometry" />
        </mxCell>
        <mxCell id="RemkKLGsjMiRwoYhnhPB-56" value="varchar" style="shape=partialRectangle;connectable=0;fillColor=none;top=0;left=0;bottom=0;right=0;align=left;spacingLeft=2;overflow=hidden;fontSize=16;" parent="RemkKLGsjMiRwoYhnhPB-55" vertex="1">
          <mxGeometry width="48" height="22" as="geometry">
            <mxRectangle width="48" height="22" as="alternateBounds" />
          </mxGeometry>
        </mxCell>
        <mxCell id="RemkKLGsjMiRwoYhnhPB-57" value="ContactEmail" style="shape=partialRectangle;connectable=0;fillColor=none;top=0;left=0;bottom=0;right=0;align=left;spacingLeft=2;overflow=hidden;fontSize=16;" parent="RemkKLGsjMiRwoYhnhPB-55" vertex="1">
          <mxGeometry x="48" width="100" height="22" as="geometry">
            <mxRectangle width="100" height="22" as="alternateBounds" />
          </mxGeometry>
        </mxCell>
        <mxCell id="RemkKLGsjMiRwoYhnhPB-58" style="shape=tableRow;horizontal=0;startSize=0;swimlaneHead=0;swimlaneBody=0;fillColor=none;collapsible=0;dropTarget=0;points=[[0,0.5],[1,0.5]];portConstraint=eastwest;top=0;left=0;right=0;bottom=0;fontSize=16;" parent="RemkKLGsjMiRwoYhnhPB-45" vertex="1">
          <mxGeometry y="113" width="148" height="22" as="geometry" />
        </mxCell>
        <mxCell id="RemkKLGsjMiRwoYhnhPB-59" value="varchar" style="shape=partialRectangle;connectable=0;fillColor=none;top=0;left=0;bottom=0;right=0;align=left;spacingLeft=2;overflow=hidden;fontSize=16;" parent="RemkKLGsjMiRwoYhnhPB-58" vertex="1">
          <mxGeometry width="48" height="22" as="geometry">
            <mxRectangle width="48" height="22" as="alternateBounds" />
          </mxGeometry>
        </mxCell>
        <mxCell id="RemkKLGsjMiRwoYhnhPB-60" value="ContactPhone" style="shape=partialRectangle;connectable=0;fillColor=none;top=0;left=0;bottom=0;right=0;align=left;spacingLeft=2;overflow=hidden;fontSize=16;" parent="RemkKLGsjMiRwoYhnhPB-58" vertex="1">
          <mxGeometry x="48" width="100" height="22" as="geometry">
            <mxRectangle width="100" height="22" as="alternateBounds" />
          </mxGeometry>
        </mxCell>
        <mxCell id="RemkKLGsjMiRwoYhnhPB-61" style="shape=tableRow;horizontal=0;startSize=0;swimlaneHead=0;swimlaneBody=0;fillColor=none;collapsible=0;dropTarget=0;points=[[0,0.5],[1,0.5]];portConstraint=eastwest;top=0;left=0;right=0;bottom=0;fontSize=16;" parent="RemkKLGsjMiRwoYhnhPB-45" vertex="1">
          <mxGeometry y="135" width="148" height="22" as="geometry" />
        </mxCell>
        <mxCell id="RemkKLGsjMiRwoYhnhPB-62" value="datetime" style="shape=partialRectangle;connectable=0;fillColor=none;top=0;left=0;bottom=0;right=0;align=left;spacingLeft=2;overflow=hidden;fontSize=16;" parent="RemkKLGsjMiRwoYhnhPB-61" vertex="1">
          <mxGeometry width="48" height="22" as="geometry">
            <mxRectangle width="48" height="22" as="alternateBounds" />
          </mxGeometry>
        </mxCell>
        <mxCell id="RemkKLGsjMiRwoYhnhPB-63" value="CreatedAt" style="shape=partialRectangle;connectable=0;fillColor=none;top=0;left=0;bottom=0;right=0;align=left;spacingLeft=2;overflow=hidden;fontSize=16;" parent="RemkKLGsjMiRwoYhnhPB-61" vertex="1">
          <mxGeometry x="48" width="100" height="22" as="geometry">
            <mxRectangle width="100" height="22" as="alternateBounds" />
          </mxGeometry>
        </mxCell>
        <mxCell id="RemkKLGsjMiRwoYhnhPB-64" style="shape=tableRow;horizontal=0;startSize=0;swimlaneHead=0;swimlaneBody=0;fillColor=none;collapsible=0;dropTarget=0;points=[[0,0.5],[1,0.5]];portConstraint=eastwest;top=0;left=0;right=0;bottom=0;fontSize=16;" parent="RemkKLGsjMiRwoYhnhPB-45" vertex="1">
          <mxGeometry y="157" width="148" height="22" as="geometry" />
        </mxCell>
        <mxCell id="RemkKLGsjMiRwoYhnhPB-65" value="datetime" style="shape=partialRectangle;connectable=0;fillColor=none;top=0;left=0;bottom=0;right=0;align=left;spacingLeft=2;overflow=hidden;fontSize=16;" parent="RemkKLGsjMiRwoYhnhPB-64" vertex="1">
          <mxGeometry width="48" height="22" as="geometry">
            <mxRectangle width="48" height="22" as="alternateBounds" />
          </mxGeometry>
        </mxCell>
        <mxCell id="RemkKLGsjMiRwoYhnhPB-66" value="UpdatedAt" style="shape=partialRectangle;connectable=0;fillColor=none;top=0;left=0;bottom=0;right=0;align=left;spacingLeft=2;overflow=hidden;fontSize=16;" parent="RemkKLGsjMiRwoYhnhPB-64" vertex="1">
          <mxGeometry x="48" width="100" height="22" as="geometry">
            <mxRectangle width="100" height="22" as="alternateBounds" />
          </mxGeometry>
        </mxCell>
        <mxCell id="RemkKLGsjMiRwoYhnhPB-67" value="TRANSACTION" style="shape=table;startSize=25;container=1;collapsible=0;childLayout=tableLayout;fixedRows=1;rowLines=1;fontStyle=1;align=center;resizeLast=1;fontSize=16;" parent="1" vertex="1">
          <mxGeometry x="474" y="583" width="166" height="249" as="geometry" />
        </mxCell>
        <mxCell id="RemkKLGsjMiRwoYhnhPB-68" style="shape=tableRow;horizontal=0;startSize=0;swimlaneHead=0;swimlaneBody=0;fillColor=none;collapsible=0;dropTarget=0;points=[[0,0.5],[1,0.5]];portConstraint=eastwest;top=0;left=0;right=0;bottom=0;fontSize=16;" parent="RemkKLGsjMiRwoYhnhPB-67" vertex="1">
          <mxGeometry y="25" width="166" height="22" as="geometry" />
        </mxCell>
        <mxCell id="RemkKLGsjMiRwoYhnhPB-69" value="int" style="shape=partialRectangle;connectable=0;fillColor=none;top=0;left=0;bottom=0;right=0;align=left;spacingLeft=2;overflow=hidden;fontSize=16;" parent="RemkKLGsjMiRwoYhnhPB-68" vertex="1">
          <mxGeometry width="48" height="22" as="geometry">
            <mxRectangle width="48" height="22" as="alternateBounds" />
          </mxGeometry>
        </mxCell>
        <mxCell id="RemkKLGsjMiRwoYhnhPB-70" value="TransactionID" style="shape=partialRectangle;connectable=0;fillColor=none;top=0;left=0;bottom=0;right=0;align=left;spacingLeft=2;overflow=hidden;fontSize=16;" parent="RemkKLGsjMiRwoYhnhPB-68" vertex="1">
          <mxGeometry x="48" width="118" height="22" as="geometry">
            <mxRectangle width="118" height="22" as="alternateBounds" />
          </mxGeometry>
        </mxCell>
        <mxCell id="RemkKLGsjMiRwoYhnhPB-71" style="shape=tableRow;horizontal=0;startSize=0;swimlaneHead=0;swimlaneBody=0;fillColor=none;collapsible=0;dropTarget=0;points=[[0,0.5],[1,0.5]];portConstraint=eastwest;top=0;left=0;right=0;bottom=0;fontSize=16;" parent="RemkKLGsjMiRwoYhnhPB-67" vertex="1">
          <mxGeometry y="47" width="166" height="22" as="geometry" />
        </mxCell>
        <mxCell id="RemkKLGsjMiRwoYhnhPB-72" value="int" style="shape=partialRectangle;connectable=0;fillColor=none;top=0;left=0;bottom=0;right=0;align=left;spacingLeft=2;overflow=hidden;fontSize=16;" parent="RemkKLGsjMiRwoYhnhPB-71" vertex="1">
          <mxGeometry width="48" height="22" as="geometry">
            <mxRectangle width="48" height="22" as="alternateBounds" />
          </mxGeometry>
        </mxCell>
        <mxCell id="RemkKLGsjMiRwoYhnhPB-73" value="CustomerID" style="shape=partialRectangle;connectable=0;fillColor=none;top=0;left=0;bottom=0;right=0;align=left;spacingLeft=2;overflow=hidden;fontSize=16;" parent="RemkKLGsjMiRwoYhnhPB-71" vertex="1">
          <mxGeometry x="48" width="118" height="22" as="geometry">
            <mxRectangle width="118" height="22" as="alternateBounds" />
          </mxGeometry>
        </mxCell>
        <mxCell id="RemkKLGsjMiRwoYhnhPB-74" style="shape=tableRow;horizontal=0;startSize=0;swimlaneHead=0;swimlaneBody=0;fillColor=none;collapsible=0;dropTarget=0;points=[[0,0.5],[1,0.5]];portConstraint=eastwest;top=0;left=0;right=0;bottom=0;fontSize=16;" parent="RemkKLGsjMiRwoYhnhPB-67" vertex="1">
          <mxGeometry y="69" width="166" height="22" as="geometry" />
        </mxCell>
        <mxCell id="RemkKLGsjMiRwoYhnhPB-75" value="int" style="shape=partialRectangle;connectable=0;fillColor=none;top=0;left=0;bottom=0;right=0;align=left;spacingLeft=2;overflow=hidden;fontSize=16;" parent="RemkKLGsjMiRwoYhnhPB-74" vertex="1">
          <mxGeometry width="48" height="22" as="geometry">
            <mxRectangle width="48" height="22" as="alternateBounds" />
          </mxGeometry>
        </mxCell>
        <mxCell id="RemkKLGsjMiRwoYhnhPB-76" value="BankID" style="shape=partialRectangle;connectable=0;fillColor=none;top=0;left=0;bottom=0;right=0;align=left;spacingLeft=2;overflow=hidden;fontSize=16;" parent="RemkKLGsjMiRwoYhnhPB-74" vertex="1">
          <mxGeometry x="48" width="118" height="22" as="geometry">
            <mxRectangle width="118" height="22" as="alternateBounds" />
          </mxGeometry>
        </mxCell>
        <mxCell id="RemkKLGsjMiRwoYhnhPB-77" style="shape=tableRow;horizontal=0;startSize=0;swimlaneHead=0;swimlaneBody=0;fillColor=none;collapsible=0;dropTarget=0;points=[[0,0.5],[1,0.5]];portConstraint=eastwest;top=0;left=0;right=0;bottom=0;fontSize=16;" parent="RemkKLGsjMiRwoYhnhPB-67" vertex="1">
          <mxGeometry y="91" width="166" height="22" as="geometry" />
        </mxCell>
        <mxCell id="RemkKLGsjMiRwoYhnhPB-78" value="int" style="shape=partialRectangle;connectable=0;fillColor=none;top=0;left=0;bottom=0;right=0;align=left;spacingLeft=2;overflow=hidden;fontSize=16;" parent="RemkKLGsjMiRwoYhnhPB-77" vertex="1">
          <mxGeometry width="48" height="22" as="geometry">
            <mxRectangle width="48" height="22" as="alternateBounds" />
          </mxGeometry>
        </mxCell>
        <mxCell id="RemkKLGsjMiRwoYhnhPB-79" value="BillerID" style="shape=partialRectangle;connectable=0;fillColor=none;top=0;left=0;bottom=0;right=0;align=left;spacingLeft=2;overflow=hidden;fontSize=16;" parent="RemkKLGsjMiRwoYhnhPB-77" vertex="1">
          <mxGeometry x="48" width="118" height="22" as="geometry">
            <mxRectangle width="118" height="22" as="alternateBounds" />
          </mxGeometry>
        </mxCell>
        <mxCell id="RemkKLGsjMiRwoYhnhPB-80" style="shape=tableRow;horizontal=0;startSize=0;swimlaneHead=0;swimlaneBody=0;fillColor=none;collapsible=0;dropTarget=0;points=[[0,0.5],[1,0.5]];portConstraint=eastwest;top=0;left=0;right=0;bottom=0;fontSize=16;" parent="RemkKLGsjMiRwoYhnhPB-67" vertex="1">
          <mxGeometry y="113" width="166" height="22" as="geometry" />
        </mxCell>
        <mxCell id="RemkKLGsjMiRwoYhnhPB-81" value="decimal" style="shape=partialRectangle;connectable=0;fillColor=none;top=0;left=0;bottom=0;right=0;align=left;spacingLeft=2;overflow=hidden;fontSize=16;" parent="RemkKLGsjMiRwoYhnhPB-80" vertex="1">
          <mxGeometry width="48" height="22" as="geometry">
            <mxRectangle width="48" height="22" as="alternateBounds" />
          </mxGeometry>
        </mxCell>
        <mxCell id="RemkKLGsjMiRwoYhnhPB-82" value="Amount" style="shape=partialRectangle;connectable=0;fillColor=none;top=0;left=0;bottom=0;right=0;align=left;spacingLeft=2;overflow=hidden;fontSize=16;" parent="RemkKLGsjMiRwoYhnhPB-80" vertex="1">
          <mxGeometry x="48" width="118" height="22" as="geometry">
            <mxRectangle width="118" height="22" as="alternateBounds" />
          </mxGeometry>
        </mxCell>
        <mxCell id="RemkKLGsjMiRwoYhnhPB-83" style="shape=tableRow;horizontal=0;startSize=0;swimlaneHead=0;swimlaneBody=0;fillColor=none;collapsible=0;dropTarget=0;points=[[0,0.5],[1,0.5]];portConstraint=eastwest;top=0;left=0;right=0;bottom=0;fontSize=16;" parent="RemkKLGsjMiRwoYhnhPB-67" vertex="1">
          <mxGeometry y="135" width="166" height="22" as="geometry" />
        </mxCell>
        <mxCell id="RemkKLGsjMiRwoYhnhPB-84" value="varchar" style="shape=partialRectangle;connectable=0;fillColor=none;top=0;left=0;bottom=0;right=0;align=left;spacingLeft=2;overflow=hidden;fontSize=16;" parent="RemkKLGsjMiRwoYhnhPB-83" vertex="1">
          <mxGeometry width="48" height="22" as="geometry">
            <mxRectangle width="48" height="22" as="alternateBounds" />
          </mxGeometry>
        </mxCell>
        <mxCell id="RemkKLGsjMiRwoYhnhPB-85" value="Status" style="shape=partialRectangle;connectable=0;fillColor=none;top=0;left=0;bottom=0;right=0;align=left;spacingLeft=2;overflow=hidden;fontSize=16;" parent="RemkKLGsjMiRwoYhnhPB-83" vertex="1">
          <mxGeometry x="48" width="118" height="22" as="geometry">
            <mxRectangle width="118" height="22" as="alternateBounds" />
          </mxGeometry>
        </mxCell>
        <mxCell id="RemkKLGsjMiRwoYhnhPB-86" style="shape=tableRow;horizontal=0;startSize=0;swimlaneHead=0;swimlaneBody=0;fillColor=none;collapsible=0;dropTarget=0;points=[[0,0.5],[1,0.5]];portConstraint=eastwest;top=0;left=0;right=0;bottom=0;fontSize=16;" parent="RemkKLGsjMiRwoYhnhPB-67" vertex="1">
          <mxGeometry y="157" width="166" height="22" as="geometry" />
        </mxCell>
        <mxCell id="RemkKLGsjMiRwoYhnhPB-87" value="int" style="shape=partialRectangle;connectable=0;fillColor=none;top=0;left=0;bottom=0;right=0;align=left;spacingLeft=2;overflow=hidden;fontSize=16;" parent="RemkKLGsjMiRwoYhnhPB-86" vertex="1">
          <mxGeometry width="48" height="22" as="geometry">
            <mxRectangle width="48" height="22" as="alternateBounds" />
          </mxGeometry>
        </mxCell>
        <mxCell id="RemkKLGsjMiRwoYhnhPB-88" value="PaymentMethodID" style="shape=partialRectangle;connectable=0;fillColor=none;top=0;left=0;bottom=0;right=0;align=left;spacingLeft=2;overflow=hidden;fontSize=16;" parent="RemkKLGsjMiRwoYhnhPB-86" vertex="1">
          <mxGeometry x="48" width="118" height="22" as="geometry">
            <mxRectangle width="118" height="22" as="alternateBounds" />
          </mxGeometry>
        </mxCell>
        <mxCell id="RemkKLGsjMiRwoYhnhPB-89" style="shape=tableRow;horizontal=0;startSize=0;swimlaneHead=0;swimlaneBody=0;fillColor=none;collapsible=0;dropTarget=0;points=[[0,0.5],[1,0.5]];portConstraint=eastwest;top=0;left=0;right=0;bottom=0;fontSize=16;" parent="RemkKLGsjMiRwoYhnhPB-67" vertex="1">
          <mxGeometry y="179" width="166" height="22" as="geometry" />
        </mxCell>
        <mxCell id="RemkKLGsjMiRwoYhnhPB-90" value="datetime" style="shape=partialRectangle;connectable=0;fillColor=none;top=0;left=0;bottom=0;right=0;align=left;spacingLeft=2;overflow=hidden;fontSize=16;" parent="RemkKLGsjMiRwoYhnhPB-89" vertex="1">
          <mxGeometry width="48" height="22" as="geometry">
            <mxRectangle width="48" height="22" as="alternateBounds" />
          </mxGeometry>
        </mxCell>
        <mxCell id="RemkKLGsjMiRwoYhnhPB-91" value="TransactionDate" style="shape=partialRectangle;connectable=0;fillColor=none;top=0;left=0;bottom=0;right=0;align=left;spacingLeft=2;overflow=hidden;fontSize=16;" parent="RemkKLGsjMiRwoYhnhPB-89" vertex="1">
          <mxGeometry x="48" width="118" height="22" as="geometry">
            <mxRectangle width="118" height="22" as="alternateBounds" />
          </mxGeometry>
        </mxCell>
        <mxCell id="RemkKLGsjMiRwoYhnhPB-92" style="shape=tableRow;horizontal=0;startSize=0;swimlaneHead=0;swimlaneBody=0;fillColor=none;collapsible=0;dropTarget=0;points=[[0,0.5],[1,0.5]];portConstraint=eastwest;top=0;left=0;right=0;bottom=0;fontSize=16;" parent="RemkKLGsjMiRwoYhnhPB-67" vertex="1">
          <mxGeometry y="201" width="166" height="22" as="geometry" />
        </mxCell>
        <mxCell id="RemkKLGsjMiRwoYhnhPB-93" value="datetime" style="shape=partialRectangle;connectable=0;fillColor=none;top=0;left=0;bottom=0;right=0;align=left;spacingLeft=2;overflow=hidden;fontSize=16;" parent="RemkKLGsjMiRwoYhnhPB-92" vertex="1">
          <mxGeometry width="48" height="22" as="geometry">
            <mxRectangle width="48" height="22" as="alternateBounds" />
          </mxGeometry>
        </mxCell>
        <mxCell id="RemkKLGsjMiRwoYhnhPB-94" value="CreatedAt" style="shape=partialRectangle;connectable=0;fillColor=none;top=0;left=0;bottom=0;right=0;align=left;spacingLeft=2;overflow=hidden;fontSize=16;" parent="RemkKLGsjMiRwoYhnhPB-92" vertex="1">
          <mxGeometry x="48" width="118" height="22" as="geometry">
            <mxRectangle width="118" height="22" as="alternateBounds" />
          </mxGeometry>
        </mxCell>
        <mxCell id="RemkKLGsjMiRwoYhnhPB-95" style="shape=tableRow;horizontal=0;startSize=0;swimlaneHead=0;swimlaneBody=0;fillColor=none;collapsible=0;dropTarget=0;points=[[0,0.5],[1,0.5]];portConstraint=eastwest;top=0;left=0;right=0;bottom=0;fontSize=16;" parent="RemkKLGsjMiRwoYhnhPB-67" vertex="1">
          <mxGeometry y="223" width="166" height="22" as="geometry" />
        </mxCell>
        <mxCell id="RemkKLGsjMiRwoYhnhPB-96" value="datetime" style="shape=partialRectangle;connectable=0;fillColor=none;top=0;left=0;bottom=0;right=0;align=left;spacingLeft=2;overflow=hidden;fontSize=16;" parent="RemkKLGsjMiRwoYhnhPB-95" vertex="1">
          <mxGeometry width="48" height="22" as="geometry">
            <mxRectangle width="48" height="22" as="alternateBounds" />
          </mxGeometry>
        </mxCell>
        <mxCell id="RemkKLGsjMiRwoYhnhPB-97" value="UpdatedAt" style="shape=partialRectangle;connectable=0;fillColor=none;top=0;left=0;bottom=0;right=0;align=left;spacingLeft=2;overflow=hidden;fontSize=16;" parent="RemkKLGsjMiRwoYhnhPB-95" vertex="1">
          <mxGeometry x="48" width="118" height="22" as="geometry">
            <mxRectangle width="118" height="22" as="alternateBounds" />
          </mxGeometry>
        </mxCell>
        <mxCell id="RemkKLGsjMiRwoYhnhPB-98" value="CLEARING" style="shape=table;startSize=25;container=1;collapsible=0;childLayout=tableLayout;fixedRows=1;rowLines=1;fontStyle=1;align=center;resizeLast=1;fontSize=16;" parent="1" vertex="1">
          <mxGeometry x="482" y="931" width="151" height="181" as="geometry" />
        </mxCell>
        <mxCell id="RemkKLGsjMiRwoYhnhPB-99" style="shape=tableRow;horizontal=0;startSize=0;swimlaneHead=0;swimlaneBody=0;fillColor=none;collapsible=0;dropTarget=0;points=[[0,0.5],[1,0.5]];portConstraint=eastwest;top=0;left=0;right=0;bottom=0;fontSize=16;" parent="RemkKLGsjMiRwoYhnhPB-98" vertex="1">
          <mxGeometry y="25" width="151" height="22" as="geometry" />
        </mxCell>
        <mxCell id="RemkKLGsjMiRwoYhnhPB-100" value="int" style="shape=partialRectangle;connectable=0;fillColor=none;top=0;left=0;bottom=0;right=0;align=left;spacingLeft=2;overflow=hidden;fontSize=16;" parent="RemkKLGsjMiRwoYhnhPB-99" vertex="1">
          <mxGeometry width="48" height="22" as="geometry">
            <mxRectangle width="48" height="22" as="alternateBounds" />
          </mxGeometry>
        </mxCell>
        <mxCell id="RemkKLGsjMiRwoYhnhPB-101" value="ClearingID" style="shape=partialRectangle;connectable=0;fillColor=none;top=0;left=0;bottom=0;right=0;align=left;spacingLeft=2;overflow=hidden;fontSize=16;" parent="RemkKLGsjMiRwoYhnhPB-99" vertex="1">
          <mxGeometry x="48" width="103" height="22" as="geometry">
            <mxRectangle width="103" height="22" as="alternateBounds" />
          </mxGeometry>
        </mxCell>
        <mxCell id="RemkKLGsjMiRwoYhnhPB-102" style="shape=tableRow;horizontal=0;startSize=0;swimlaneHead=0;swimlaneBody=0;fillColor=none;collapsible=0;dropTarget=0;points=[[0,0.5],[1,0.5]];portConstraint=eastwest;top=0;left=0;right=0;bottom=0;fontSize=16;" parent="RemkKLGsjMiRwoYhnhPB-98" vertex="1">
          <mxGeometry y="47" width="151" height="22" as="geometry" />
        </mxCell>
        <mxCell id="RemkKLGsjMiRwoYhnhPB-103" value="int" style="shape=partialRectangle;connectable=0;fillColor=none;top=0;left=0;bottom=0;right=0;align=left;spacingLeft=2;overflow=hidden;fontSize=16;" parent="RemkKLGsjMiRwoYhnhPB-102" vertex="1">
          <mxGeometry width="48" height="22" as="geometry">
            <mxRectangle width="48" height="22" as="alternateBounds" />
          </mxGeometry>
        </mxCell>
        <mxCell id="RemkKLGsjMiRwoYhnhPB-104" value="TransactionID" style="shape=partialRectangle;connectable=0;fillColor=none;top=0;left=0;bottom=0;right=0;align=left;spacingLeft=2;overflow=hidden;fontSize=16;" parent="RemkKLGsjMiRwoYhnhPB-102" vertex="1">
          <mxGeometry x="48" width="103" height="22" as="geometry">
            <mxRectangle width="103" height="22" as="alternateBounds" />
          </mxGeometry>
        </mxCell>
        <mxCell id="RemkKLGsjMiRwoYhnhPB-105" style="shape=tableRow;horizontal=0;startSize=0;swimlaneHead=0;swimlaneBody=0;fillColor=none;collapsible=0;dropTarget=0;points=[[0,0.5],[1,0.5]];portConstraint=eastwest;top=0;left=0;right=0;bottom=0;fontSize=16;" parent="RemkKLGsjMiRwoYhnhPB-98" vertex="1">
          <mxGeometry y="69" width="151" height="22" as="geometry" />
        </mxCell>
        <mxCell id="RemkKLGsjMiRwoYhnhPB-106" value="datetime" style="shape=partialRectangle;connectable=0;fillColor=none;top=0;left=0;bottom=0;right=0;align=left;spacingLeft=2;overflow=hidden;fontSize=16;" parent="RemkKLGsjMiRwoYhnhPB-105" vertex="1">
          <mxGeometry width="48" height="22" as="geometry">
            <mxRectangle width="48" height="22" as="alternateBounds" />
          </mxGeometry>
        </mxCell>
        <mxCell id="RemkKLGsjMiRwoYhnhPB-107" value="ClearingDate" style="shape=partialRectangle;connectable=0;fillColor=none;top=0;left=0;bottom=0;right=0;align=left;spacingLeft=2;overflow=hidden;fontSize=16;" parent="RemkKLGsjMiRwoYhnhPB-105" vertex="1">
          <mxGeometry x="48" width="103" height="22" as="geometry">
            <mxRectangle width="103" height="22" as="alternateBounds" />
          </mxGeometry>
        </mxCell>
        <mxCell id="RemkKLGsjMiRwoYhnhPB-108" style="shape=tableRow;horizontal=0;startSize=0;swimlaneHead=0;swimlaneBody=0;fillColor=none;collapsible=0;dropTarget=0;points=[[0,0.5],[1,0.5]];portConstraint=eastwest;top=0;left=0;right=0;bottom=0;fontSize=16;" parent="RemkKLGsjMiRwoYhnhPB-98" vertex="1">
          <mxGeometry y="91" width="151" height="22" as="geometry" />
        </mxCell>
        <mxCell id="RemkKLGsjMiRwoYhnhPB-109" value="varchar" style="shape=partialRectangle;connectable=0;fillColor=none;top=0;left=0;bottom=0;right=0;align=left;spacingLeft=2;overflow=hidden;fontSize=16;" parent="RemkKLGsjMiRwoYhnhPB-108" vertex="1">
          <mxGeometry width="48" height="22" as="geometry">
            <mxRectangle width="48" height="22" as="alternateBounds" />
          </mxGeometry>
        </mxCell>
        <mxCell id="RemkKLGsjMiRwoYhnhPB-110" value="ClearingStatus" style="shape=partialRectangle;connectable=0;fillColor=none;top=0;left=0;bottom=0;right=0;align=left;spacingLeft=2;overflow=hidden;fontSize=16;" parent="RemkKLGsjMiRwoYhnhPB-108" vertex="1">
          <mxGeometry x="48" width="103" height="22" as="geometry">
            <mxRectangle width="103" height="22" as="alternateBounds" />
          </mxGeometry>
        </mxCell>
        <mxCell id="RemkKLGsjMiRwoYhnhPB-111" style="shape=tableRow;horizontal=0;startSize=0;swimlaneHead=0;swimlaneBody=0;fillColor=none;collapsible=0;dropTarget=0;points=[[0,0.5],[1,0.5]];portConstraint=eastwest;top=0;left=0;right=0;bottom=0;fontSize=16;" parent="RemkKLGsjMiRwoYhnhPB-98" vertex="1">
          <mxGeometry y="113" width="151" height="22" as="geometry" />
        </mxCell>
        <mxCell id="RemkKLGsjMiRwoYhnhPB-112" value="text" style="shape=partialRectangle;connectable=0;fillColor=none;top=0;left=0;bottom=0;right=0;align=left;spacingLeft=2;overflow=hidden;fontSize=16;" parent="RemkKLGsjMiRwoYhnhPB-111" vertex="1">
          <mxGeometry width="48" height="22" as="geometry">
            <mxRectangle width="48" height="22" as="alternateBounds" />
          </mxGeometry>
        </mxCell>
        <mxCell id="RemkKLGsjMiRwoYhnhPB-113" value="Remarks" style="shape=partialRectangle;connectable=0;fillColor=none;top=0;left=0;bottom=0;right=0;align=left;spacingLeft=2;overflow=hidden;fontSize=16;" parent="RemkKLGsjMiRwoYhnhPB-111" vertex="1">
          <mxGeometry x="48" width="103" height="22" as="geometry">
            <mxRectangle width="103" height="22" as="alternateBounds" />
          </mxGeometry>
        </mxCell>
        <mxCell id="RemkKLGsjMiRwoYhnhPB-114" style="shape=tableRow;horizontal=0;startSize=0;swimlaneHead=0;swimlaneBody=0;fillColor=none;collapsible=0;dropTarget=0;points=[[0,0.5],[1,0.5]];portConstraint=eastwest;top=0;left=0;right=0;bottom=0;fontSize=16;" parent="RemkKLGsjMiRwoYhnhPB-98" vertex="1">
          <mxGeometry y="135" width="151" height="22" as="geometry" />
        </mxCell>
        <mxCell id="RemkKLGsjMiRwoYhnhPB-115" value="datetime" style="shape=partialRectangle;connectable=0;fillColor=none;top=0;left=0;bottom=0;right=0;align=left;spacingLeft=2;overflow=hidden;fontSize=16;" parent="RemkKLGsjMiRwoYhnhPB-114" vertex="1">
          <mxGeometry width="48" height="22" as="geometry">
            <mxRectangle width="48" height="22" as="alternateBounds" />
          </mxGeometry>
        </mxCell>
        <mxCell id="RemkKLGsjMiRwoYhnhPB-116" value="CreatedAt" style="shape=partialRectangle;connectable=0;fillColor=none;top=0;left=0;bottom=0;right=0;align=left;spacingLeft=2;overflow=hidden;fontSize=16;" parent="RemkKLGsjMiRwoYhnhPB-114" vertex="1">
          <mxGeometry x="48" width="103" height="22" as="geometry">
            <mxRectangle width="103" height="22" as="alternateBounds" />
          </mxGeometry>
        </mxCell>
        <mxCell id="RemkKLGsjMiRwoYhnhPB-117" style="shape=tableRow;horizontal=0;startSize=0;swimlaneHead=0;swimlaneBody=0;fillColor=none;collapsible=0;dropTarget=0;points=[[0,0.5],[1,0.5]];portConstraint=eastwest;top=0;left=0;right=0;bottom=0;fontSize=16;" parent="RemkKLGsjMiRwoYhnhPB-98" vertex="1">
          <mxGeometry y="157" width="151" height="22" as="geometry" />
        </mxCell>
        <mxCell id="RemkKLGsjMiRwoYhnhPB-118" value="datetime" style="shape=partialRectangle;connectable=0;fillColor=none;top=0;left=0;bottom=0;right=0;align=left;spacingLeft=2;overflow=hidden;fontSize=16;" parent="RemkKLGsjMiRwoYhnhPB-117" vertex="1">
          <mxGeometry width="48" height="22" as="geometry">
            <mxRectangle width="48" height="22" as="alternateBounds" />
          </mxGeometry>
        </mxCell>
        <mxCell id="RemkKLGsjMiRwoYhnhPB-119" value="UpdatedAt" style="shape=partialRectangle;connectable=0;fillColor=none;top=0;left=0;bottom=0;right=0;align=left;spacingLeft=2;overflow=hidden;fontSize=16;" parent="RemkKLGsjMiRwoYhnhPB-117" vertex="1">
          <mxGeometry x="48" width="103" height="22" as="geometry">
            <mxRectangle width="103" height="22" as="alternateBounds" />
          </mxGeometry>
        </mxCell>
        <mxCell id="RemkKLGsjMiRwoYhnhPB-120" value="SETTLEMENT" style="shape=table;startSize=25;container=1;collapsible=0;childLayout=tableLayout;fixedRows=1;rowLines=1;fontStyle=1;align=center;resizeLast=1;fontSize=16;" parent="1" vertex="1">
          <mxGeometry x="472" y="1213" width="171" height="204" as="geometry" />
        </mxCell>
        <mxCell id="RemkKLGsjMiRwoYhnhPB-121" style="shape=tableRow;horizontal=0;startSize=0;swimlaneHead=0;swimlaneBody=0;fillColor=none;collapsible=0;dropTarget=0;points=[[0,0.5],[1,0.5]];portConstraint=eastwest;top=0;left=0;right=0;bottom=0;fontSize=16;" parent="RemkKLGsjMiRwoYhnhPB-120" vertex="1">
          <mxGeometry y="25" width="171" height="22" as="geometry" />
        </mxCell>
        <mxCell id="RemkKLGsjMiRwoYhnhPB-122" value="int" style="shape=partialRectangle;connectable=0;fillColor=none;top=0;left=0;bottom=0;right=0;align=left;spacingLeft=2;overflow=hidden;fontSize=16;" parent="RemkKLGsjMiRwoYhnhPB-121" vertex="1">
          <mxGeometry width="48" height="22" as="geometry">
            <mxRectangle width="48" height="22" as="alternateBounds" />
          </mxGeometry>
        </mxCell>
        <mxCell id="RemkKLGsjMiRwoYhnhPB-123" value="SettlementID" style="shape=partialRectangle;connectable=0;fillColor=none;top=0;left=0;bottom=0;right=0;align=left;spacingLeft=2;overflow=hidden;fontSize=16;" parent="RemkKLGsjMiRwoYhnhPB-121" vertex="1">
          <mxGeometry x="48" width="123" height="22" as="geometry">
            <mxRectangle width="123" height="22" as="alternateBounds" />
          </mxGeometry>
        </mxCell>
        <mxCell id="RemkKLGsjMiRwoYhnhPB-124" style="shape=tableRow;horizontal=0;startSize=0;swimlaneHead=0;swimlaneBody=0;fillColor=none;collapsible=0;dropTarget=0;points=[[0,0.5],[1,0.5]];portConstraint=eastwest;top=0;left=0;right=0;bottom=0;fontSize=16;" parent="RemkKLGsjMiRwoYhnhPB-120" vertex="1">
          <mxGeometry y="47" width="171" height="22" as="geometry" />
        </mxCell>
        <mxCell id="RemkKLGsjMiRwoYhnhPB-125" value="int" style="shape=partialRectangle;connectable=0;fillColor=none;top=0;left=0;bottom=0;right=0;align=left;spacingLeft=2;overflow=hidden;fontSize=16;" parent="RemkKLGsjMiRwoYhnhPB-124" vertex="1">
          <mxGeometry width="48" height="22" as="geometry">
            <mxRectangle width="48" height="22" as="alternateBounds" />
          </mxGeometry>
        </mxCell>
        <mxCell id="RemkKLGsjMiRwoYhnhPB-126" value="ClearingID" style="shape=partialRectangle;connectable=0;fillColor=none;top=0;left=0;bottom=0;right=0;align=left;spacingLeft=2;overflow=hidden;fontSize=16;" parent="RemkKLGsjMiRwoYhnhPB-124" vertex="1">
          <mxGeometry x="48" width="123" height="22" as="geometry">
            <mxRectangle width="123" height="22" as="alternateBounds" />
          </mxGeometry>
        </mxCell>
        <mxCell id="RemkKLGsjMiRwoYhnhPB-127" style="shape=tableRow;horizontal=0;startSize=0;swimlaneHead=0;swimlaneBody=0;fillColor=none;collapsible=0;dropTarget=0;points=[[0,0.5],[1,0.5]];portConstraint=eastwest;top=0;left=0;right=0;bottom=0;fontSize=16;" parent="RemkKLGsjMiRwoYhnhPB-120" vertex="1">
          <mxGeometry y="69" width="171" height="22" as="geometry" />
        </mxCell>
        <mxCell id="RemkKLGsjMiRwoYhnhPB-128" value="datetime" style="shape=partialRectangle;connectable=0;fillColor=none;top=0;left=0;bottom=0;right=0;align=left;spacingLeft=2;overflow=hidden;fontSize=16;" parent="RemkKLGsjMiRwoYhnhPB-127" vertex="1">
          <mxGeometry width="48" height="22" as="geometry">
            <mxRectangle width="48" height="22" as="alternateBounds" />
          </mxGeometry>
        </mxCell>
        <mxCell id="RemkKLGsjMiRwoYhnhPB-129" value="SettlementDate" style="shape=partialRectangle;connectable=0;fillColor=none;top=0;left=0;bottom=0;right=0;align=left;spacingLeft=2;overflow=hidden;fontSize=16;" parent="RemkKLGsjMiRwoYhnhPB-127" vertex="1">
          <mxGeometry x="48" width="123" height="22" as="geometry">
            <mxRectangle width="123" height="22" as="alternateBounds" />
          </mxGeometry>
        </mxCell>
        <mxCell id="RemkKLGsjMiRwoYhnhPB-130" style="shape=tableRow;horizontal=0;startSize=0;swimlaneHead=0;swimlaneBody=0;fillColor=none;collapsible=0;dropTarget=0;points=[[0,0.5],[1,0.5]];portConstraint=eastwest;top=0;left=0;right=0;bottom=0;fontSize=16;" parent="RemkKLGsjMiRwoYhnhPB-120" vertex="1">
          <mxGeometry y="91" width="171" height="22" as="geometry" />
        </mxCell>
        <mxCell id="RemkKLGsjMiRwoYhnhPB-131" value="decimal" style="shape=partialRectangle;connectable=0;fillColor=none;top=0;left=0;bottom=0;right=0;align=left;spacingLeft=2;overflow=hidden;fontSize=16;" parent="RemkKLGsjMiRwoYhnhPB-130" vertex="1">
          <mxGeometry width="48" height="22" as="geometry">
            <mxRectangle width="48" height="22" as="alternateBounds" />
          </mxGeometry>
        </mxCell>
        <mxCell id="RemkKLGsjMiRwoYhnhPB-132" value="SettlementAmount" style="shape=partialRectangle;connectable=0;fillColor=none;top=0;left=0;bottom=0;right=0;align=left;spacingLeft=2;overflow=hidden;fontSize=16;" parent="RemkKLGsjMiRwoYhnhPB-130" vertex="1">
          <mxGeometry x="48" width="123" height="22" as="geometry">
            <mxRectangle width="123" height="22" as="alternateBounds" />
          </mxGeometry>
        </mxCell>
        <mxCell id="RemkKLGsjMiRwoYhnhPB-133" style="shape=tableRow;horizontal=0;startSize=0;swimlaneHead=0;swimlaneBody=0;fillColor=none;collapsible=0;dropTarget=0;points=[[0,0.5],[1,0.5]];portConstraint=eastwest;top=0;left=0;right=0;bottom=0;fontSize=16;" parent="RemkKLGsjMiRwoYhnhPB-120" vertex="1">
          <mxGeometry y="113" width="171" height="22" as="geometry" />
        </mxCell>
        <mxCell id="RemkKLGsjMiRwoYhnhPB-134" value="varchar" style="shape=partialRectangle;connectable=0;fillColor=none;top=0;left=0;bottom=0;right=0;align=left;spacingLeft=2;overflow=hidden;fontSize=16;" parent="RemkKLGsjMiRwoYhnhPB-133" vertex="1">
          <mxGeometry width="48" height="22" as="geometry">
            <mxRectangle width="48" height="22" as="alternateBounds" />
          </mxGeometry>
        </mxCell>
        <mxCell id="RemkKLGsjMiRwoYhnhPB-135" value="SettlementStatus" style="shape=partialRectangle;connectable=0;fillColor=none;top=0;left=0;bottom=0;right=0;align=left;spacingLeft=2;overflow=hidden;fontSize=16;" parent="RemkKLGsjMiRwoYhnhPB-133" vertex="1">
          <mxGeometry x="48" width="123" height="22" as="geometry">
            <mxRectangle width="123" height="22" as="alternateBounds" />
          </mxGeometry>
        </mxCell>
        <mxCell id="RemkKLGsjMiRwoYhnhPB-136" style="shape=tableRow;horizontal=0;startSize=0;swimlaneHead=0;swimlaneBody=0;fillColor=none;collapsible=0;dropTarget=0;points=[[0,0.5],[1,0.5]];portConstraint=eastwest;top=0;left=0;right=0;bottom=0;fontSize=16;" parent="RemkKLGsjMiRwoYhnhPB-120" vertex="1">
          <mxGeometry y="135" width="171" height="22" as="geometry" />
        </mxCell>
        <mxCell id="RemkKLGsjMiRwoYhnhPB-137" value="text" style="shape=partialRectangle;connectable=0;fillColor=none;top=0;left=0;bottom=0;right=0;align=left;spacingLeft=2;overflow=hidden;fontSize=16;" parent="RemkKLGsjMiRwoYhnhPB-136" vertex="1">
          <mxGeometry width="48" height="22" as="geometry">
            <mxRectangle width="48" height="22" as="alternateBounds" />
          </mxGeometry>
        </mxCell>
        <mxCell id="RemkKLGsjMiRwoYhnhPB-138" value="Remarks" style="shape=partialRectangle;connectable=0;fillColor=none;top=0;left=0;bottom=0;right=0;align=left;spacingLeft=2;overflow=hidden;fontSize=16;" parent="RemkKLGsjMiRwoYhnhPB-136" vertex="1">
          <mxGeometry x="48" width="123" height="22" as="geometry">
            <mxRectangle width="123" height="22" as="alternateBounds" />
          </mxGeometry>
        </mxCell>
        <mxCell id="RemkKLGsjMiRwoYhnhPB-139" style="shape=tableRow;horizontal=0;startSize=0;swimlaneHead=0;swimlaneBody=0;fillColor=none;collapsible=0;dropTarget=0;points=[[0,0.5],[1,0.5]];portConstraint=eastwest;top=0;left=0;right=0;bottom=0;fontSize=16;" parent="RemkKLGsjMiRwoYhnhPB-120" vertex="1">
          <mxGeometry y="157" width="171" height="22" as="geometry" />
        </mxCell>
        <mxCell id="RemkKLGsjMiRwoYhnhPB-140" value="datetime" style="shape=partialRectangle;connectable=0;fillColor=none;top=0;left=0;bottom=0;right=0;align=left;spacingLeft=2;overflow=hidden;fontSize=16;" parent="RemkKLGsjMiRwoYhnhPB-139" vertex="1">
          <mxGeometry width="48" height="22" as="geometry">
            <mxRectangle width="48" height="22" as="alternateBounds" />
          </mxGeometry>
        </mxCell>
        <mxCell id="RemkKLGsjMiRwoYhnhPB-141" value="CreatedAt" style="shape=partialRectangle;connectable=0;fillColor=none;top=0;left=0;bottom=0;right=0;align=left;spacingLeft=2;overflow=hidden;fontSize=16;" parent="RemkKLGsjMiRwoYhnhPB-139" vertex="1">
          <mxGeometry x="48" width="123" height="22" as="geometry">
            <mxRectangle width="123" height="22" as="alternateBounds" />
          </mxGeometry>
        </mxCell>
        <mxCell id="RemkKLGsjMiRwoYhnhPB-142" style="shape=tableRow;horizontal=0;startSize=0;swimlaneHead=0;swimlaneBody=0;fillColor=none;collapsible=0;dropTarget=0;points=[[0,0.5],[1,0.5]];portConstraint=eastwest;top=0;left=0;right=0;bottom=0;fontSize=16;" parent="RemkKLGsjMiRwoYhnhPB-120" vertex="1">
          <mxGeometry y="179" width="171" height="22" as="geometry" />
        </mxCell>
        <mxCell id="RemkKLGsjMiRwoYhnhPB-143" value="datetime" style="shape=partialRectangle;connectable=0;fillColor=none;top=0;left=0;bottom=0;right=0;align=left;spacingLeft=2;overflow=hidden;fontSize=16;" parent="RemkKLGsjMiRwoYhnhPB-142" vertex="1">
          <mxGeometry width="48" height="22" as="geometry">
            <mxRectangle width="48" height="22" as="alternateBounds" />
          </mxGeometry>
        </mxCell>
        <mxCell id="RemkKLGsjMiRwoYhnhPB-144" value="UpdatedAt" style="shape=partialRectangle;connectable=0;fillColor=none;top=0;left=0;bottom=0;right=0;align=left;spacingLeft=2;overflow=hidden;fontSize=16;" parent="RemkKLGsjMiRwoYhnhPB-142" vertex="1">
          <mxGeometry x="48" width="123" height="22" as="geometry">
            <mxRectangle width="123" height="22" as="alternateBounds" />
          </mxGeometry>
        </mxCell>
        <mxCell id="RemkKLGsjMiRwoYhnhPB-145" value="RECONCILIATION" style="shape=table;startSize=25;container=1;collapsible=0;childLayout=tableLayout;fixedRows=1;rowLines=1;fontStyle=1;align=center;resizeLast=1;fontSize=16;" parent="1" vertex="1">
          <mxGeometry x="20" y="583" width="178" height="249" as="geometry" />
        </mxCell>
        <mxCell id="RemkKLGsjMiRwoYhnhPB-146" style="shape=tableRow;horizontal=0;startSize=0;swimlaneHead=0;swimlaneBody=0;fillColor=none;collapsible=0;dropTarget=0;points=[[0,0.5],[1,0.5]];portConstraint=eastwest;top=0;left=0;right=0;bottom=0;fontSize=16;" parent="RemkKLGsjMiRwoYhnhPB-145" vertex="1">
          <mxGeometry y="25" width="178" height="22" as="geometry" />
        </mxCell>
        <mxCell id="RemkKLGsjMiRwoYhnhPB-147" value="int" style="shape=partialRectangle;connectable=0;fillColor=none;top=0;left=0;bottom=0;right=0;align=left;spacingLeft=2;overflow=hidden;fontSize=16;" parent="RemkKLGsjMiRwoYhnhPB-146" vertex="1">
          <mxGeometry width="48" height="22" as="geometry">
            <mxRectangle width="48" height="22" as="alternateBounds" />
          </mxGeometry>
        </mxCell>
        <mxCell id="RemkKLGsjMiRwoYhnhPB-148" value="ReconciliationID" style="shape=partialRectangle;connectable=0;fillColor=none;top=0;left=0;bottom=0;right=0;align=left;spacingLeft=2;overflow=hidden;fontSize=16;" parent="RemkKLGsjMiRwoYhnhPB-146" vertex="1">
          <mxGeometry x="48" width="130" height="22" as="geometry">
            <mxRectangle width="130" height="22" as="alternateBounds" />
          </mxGeometry>
        </mxCell>
        <mxCell id="RemkKLGsjMiRwoYhnhPB-149" style="shape=tableRow;horizontal=0;startSize=0;swimlaneHead=0;swimlaneBody=0;fillColor=none;collapsible=0;dropTarget=0;points=[[0,0.5],[1,0.5]];portConstraint=eastwest;top=0;left=0;right=0;bottom=0;fontSize=16;" parent="RemkKLGsjMiRwoYhnhPB-145" vertex="1">
          <mxGeometry y="47" width="178" height="22" as="geometry" />
        </mxCell>
        <mxCell id="RemkKLGsjMiRwoYhnhPB-150" value="int" style="shape=partialRectangle;connectable=0;fillColor=none;top=0;left=0;bottom=0;right=0;align=left;spacingLeft=2;overflow=hidden;fontSize=16;" parent="RemkKLGsjMiRwoYhnhPB-149" vertex="1">
          <mxGeometry width="48" height="22" as="geometry">
            <mxRectangle width="48" height="22" as="alternateBounds" />
          </mxGeometry>
        </mxCell>
        <mxCell id="RemkKLGsjMiRwoYhnhPB-151" value="BankID" style="shape=partialRectangle;connectable=0;fillColor=none;top=0;left=0;bottom=0;right=0;align=left;spacingLeft=2;overflow=hidden;fontSize=16;" parent="RemkKLGsjMiRwoYhnhPB-149" vertex="1">
          <mxGeometry x="48" width="130" height="22" as="geometry">
            <mxRectangle width="130" height="22" as="alternateBounds" />
          </mxGeometry>
        </mxCell>
        <mxCell id="RemkKLGsjMiRwoYhnhPB-152" style="shape=tableRow;horizontal=0;startSize=0;swimlaneHead=0;swimlaneBody=0;fillColor=none;collapsible=0;dropTarget=0;points=[[0,0.5],[1,0.5]];portConstraint=eastwest;top=0;left=0;right=0;bottom=0;fontSize=16;" parent="RemkKLGsjMiRwoYhnhPB-145" vertex="1">
          <mxGeometry y="69" width="178" height="22" as="geometry" />
        </mxCell>
        <mxCell id="RemkKLGsjMiRwoYhnhPB-153" value="int" style="shape=partialRectangle;connectable=0;fillColor=none;top=0;left=0;bottom=0;right=0;align=left;spacingLeft=2;overflow=hidden;fontSize=16;" parent="RemkKLGsjMiRwoYhnhPB-152" vertex="1">
          <mxGeometry width="48" height="22" as="geometry">
            <mxRectangle width="48" height="22" as="alternateBounds" />
          </mxGeometry>
        </mxCell>
        <mxCell id="RemkKLGsjMiRwoYhnhPB-154" value="BillerID" style="shape=partialRectangle;connectable=0;fillColor=none;top=0;left=0;bottom=0;right=0;align=left;spacingLeft=2;overflow=hidden;fontSize=16;" parent="RemkKLGsjMiRwoYhnhPB-152" vertex="1">
          <mxGeometry x="48" width="130" height="22" as="geometry">
            <mxRectangle width="130" height="22" as="alternateBounds" />
          </mxGeometry>
        </mxCell>
        <mxCell id="RemkKLGsjMiRwoYhnhPB-155" style="shape=tableRow;horizontal=0;startSize=0;swimlaneHead=0;swimlaneBody=0;fillColor=none;collapsible=0;dropTarget=0;points=[[0,0.5],[1,0.5]];portConstraint=eastwest;top=0;left=0;right=0;bottom=0;fontSize=16;" parent="RemkKLGsjMiRwoYhnhPB-145" vertex="1">
          <mxGeometry y="91" width="178" height="22" as="geometry" />
        </mxCell>
        <mxCell id="RemkKLGsjMiRwoYhnhPB-156" value="datetime" style="shape=partialRectangle;connectable=0;fillColor=none;top=0;left=0;bottom=0;right=0;align=left;spacingLeft=2;overflow=hidden;fontSize=16;" parent="RemkKLGsjMiRwoYhnhPB-155" vertex="1">
          <mxGeometry width="48" height="22" as="geometry">
            <mxRectangle width="48" height="22" as="alternateBounds" />
          </mxGeometry>
        </mxCell>
        <mxCell id="RemkKLGsjMiRwoYhnhPB-157" value="ReconciliationDate" style="shape=partialRectangle;connectable=0;fillColor=none;top=0;left=0;bottom=0;right=0;align=left;spacingLeft=2;overflow=hidden;fontSize=16;" parent="RemkKLGsjMiRwoYhnhPB-155" vertex="1">
          <mxGeometry x="48" width="130" height="22" as="geometry">
            <mxRectangle width="130" height="22" as="alternateBounds" />
          </mxGeometry>
        </mxCell>
        <mxCell id="RemkKLGsjMiRwoYhnhPB-158" style="shape=tableRow;horizontal=0;startSize=0;swimlaneHead=0;swimlaneBody=0;fillColor=none;collapsible=0;dropTarget=0;points=[[0,0.5],[1,0.5]];portConstraint=eastwest;top=0;left=0;right=0;bottom=0;fontSize=16;" parent="RemkKLGsjMiRwoYhnhPB-145" vertex="1">
          <mxGeometry y="113" width="178" height="22" as="geometry" />
        </mxCell>
        <mxCell id="RemkKLGsjMiRwoYhnhPB-159" value="int" style="shape=partialRectangle;connectable=0;fillColor=none;top=0;left=0;bottom=0;right=0;align=left;spacingLeft=2;overflow=hidden;fontSize=16;" parent="RemkKLGsjMiRwoYhnhPB-158" vertex="1">
          <mxGeometry width="48" height="22" as="geometry">
            <mxRectangle width="48" height="22" as="alternateBounds" />
          </mxGeometry>
        </mxCell>
        <mxCell id="RemkKLGsjMiRwoYhnhPB-160" value="TotalTransactions" style="shape=partialRectangle;connectable=0;fillColor=none;top=0;left=0;bottom=0;right=0;align=left;spacingLeft=2;overflow=hidden;fontSize=16;" parent="RemkKLGsjMiRwoYhnhPB-158" vertex="1">
          <mxGeometry x="48" width="130" height="22" as="geometry">
            <mxRectangle width="130" height="22" as="alternateBounds" />
          </mxGeometry>
        </mxCell>
        <mxCell id="RemkKLGsjMiRwoYhnhPB-161" style="shape=tableRow;horizontal=0;startSize=0;swimlaneHead=0;swimlaneBody=0;fillColor=none;collapsible=0;dropTarget=0;points=[[0,0.5],[1,0.5]];portConstraint=eastwest;top=0;left=0;right=0;bottom=0;fontSize=16;" parent="RemkKLGsjMiRwoYhnhPB-145" vertex="1">
          <mxGeometry y="135" width="178" height="22" as="geometry" />
        </mxCell>
        <mxCell id="RemkKLGsjMiRwoYhnhPB-162" value="decimal" style="shape=partialRectangle;connectable=0;fillColor=none;top=0;left=0;bottom=0;right=0;align=left;spacingLeft=2;overflow=hidden;fontSize=16;" parent="RemkKLGsjMiRwoYhnhPB-161" vertex="1">
          <mxGeometry width="48" height="22" as="geometry">
            <mxRectangle width="48" height="22" as="alternateBounds" />
          </mxGeometry>
        </mxCell>
        <mxCell id="RemkKLGsjMiRwoYhnhPB-163" value="TotalAmount" style="shape=partialRectangle;connectable=0;fillColor=none;top=0;left=0;bottom=0;right=0;align=left;spacingLeft=2;overflow=hidden;fontSize=16;" parent="RemkKLGsjMiRwoYhnhPB-161" vertex="1">
          <mxGeometry x="48" width="130" height="22" as="geometry">
            <mxRectangle width="130" height="22" as="alternateBounds" />
          </mxGeometry>
        </mxCell>
        <mxCell id="RemkKLGsjMiRwoYhnhPB-164" style="shape=tableRow;horizontal=0;startSize=0;swimlaneHead=0;swimlaneBody=0;fillColor=none;collapsible=0;dropTarget=0;points=[[0,0.5],[1,0.5]];portConstraint=eastwest;top=0;left=0;right=0;bottom=0;fontSize=16;" parent="RemkKLGsjMiRwoYhnhPB-145" vertex="1">
          <mxGeometry y="157" width="178" height="22" as="geometry" />
        </mxCell>
        <mxCell id="RemkKLGsjMiRwoYhnhPB-165" value="text" style="shape=partialRectangle;connectable=0;fillColor=none;top=0;left=0;bottom=0;right=0;align=left;spacingLeft=2;overflow=hidden;fontSize=16;" parent="RemkKLGsjMiRwoYhnhPB-164" vertex="1">
          <mxGeometry width="48" height="22" as="geometry">
            <mxRectangle width="48" height="22" as="alternateBounds" />
          </mxGeometry>
        </mxCell>
        <mxCell id="RemkKLGsjMiRwoYhnhPB-166" value="Discrepancies" style="shape=partialRectangle;connectable=0;fillColor=none;top=0;left=0;bottom=0;right=0;align=left;spacingLeft=2;overflow=hidden;fontSize=16;" parent="RemkKLGsjMiRwoYhnhPB-164" vertex="1">
          <mxGeometry x="48" width="130" height="22" as="geometry">
            <mxRectangle width="130" height="22" as="alternateBounds" />
          </mxGeometry>
        </mxCell>
        <mxCell id="RemkKLGsjMiRwoYhnhPB-167" style="shape=tableRow;horizontal=0;startSize=0;swimlaneHead=0;swimlaneBody=0;fillColor=none;collapsible=0;dropTarget=0;points=[[0,0.5],[1,0.5]];portConstraint=eastwest;top=0;left=0;right=0;bottom=0;fontSize=16;" parent="RemkKLGsjMiRwoYhnhPB-145" vertex="1">
          <mxGeometry y="179" width="178" height="22" as="geometry" />
        </mxCell>
        <mxCell id="RemkKLGsjMiRwoYhnhPB-168" value="varchar" style="shape=partialRectangle;connectable=0;fillColor=none;top=0;left=0;bottom=0;right=0;align=left;spacingLeft=2;overflow=hidden;fontSize=16;" parent="RemkKLGsjMiRwoYhnhPB-167" vertex="1">
          <mxGeometry width="48" height="22" as="geometry">
            <mxRectangle width="48" height="22" as="alternateBounds" />
          </mxGeometry>
        </mxCell>
        <mxCell id="RemkKLGsjMiRwoYhnhPB-169" value="ReconciliationStatus" style="shape=partialRectangle;connectable=0;fillColor=none;top=0;left=0;bottom=0;right=0;align=left;spacingLeft=2;overflow=hidden;fontSize=16;" parent="RemkKLGsjMiRwoYhnhPB-167" vertex="1">
          <mxGeometry x="48" width="130" height="22" as="geometry">
            <mxRectangle width="130" height="22" as="alternateBounds" />
          </mxGeometry>
        </mxCell>
        <mxCell id="RemkKLGsjMiRwoYhnhPB-170" style="shape=tableRow;horizontal=0;startSize=0;swimlaneHead=0;swimlaneBody=0;fillColor=none;collapsible=0;dropTarget=0;points=[[0,0.5],[1,0.5]];portConstraint=eastwest;top=0;left=0;right=0;bottom=0;fontSize=16;" parent="RemkKLGsjMiRwoYhnhPB-145" vertex="1">
          <mxGeometry y="201" width="178" height="22" as="geometry" />
        </mxCell>
        <mxCell id="RemkKLGsjMiRwoYhnhPB-171" value="datetime" style="shape=partialRectangle;connectable=0;fillColor=none;top=0;left=0;bottom=0;right=0;align=left;spacingLeft=2;overflow=hidden;fontSize=16;" parent="RemkKLGsjMiRwoYhnhPB-170" vertex="1">
          <mxGeometry width="48" height="22" as="geometry">
            <mxRectangle width="48" height="22" as="alternateBounds" />
          </mxGeometry>
        </mxCell>
        <mxCell id="RemkKLGsjMiRwoYhnhPB-172" value="CreatedAt" style="shape=partialRectangle;connectable=0;fillColor=none;top=0;left=0;bottom=0;right=0;align=left;spacingLeft=2;overflow=hidden;fontSize=16;" parent="RemkKLGsjMiRwoYhnhPB-170" vertex="1">
          <mxGeometry x="48" width="130" height="22" as="geometry">
            <mxRectangle width="130" height="22" as="alternateBounds" />
          </mxGeometry>
        </mxCell>
        <mxCell id="RemkKLGsjMiRwoYhnhPB-173" style="shape=tableRow;horizontal=0;startSize=0;swimlaneHead=0;swimlaneBody=0;fillColor=none;collapsible=0;dropTarget=0;points=[[0,0.5],[1,0.5]];portConstraint=eastwest;top=0;left=0;right=0;bottom=0;fontSize=16;" parent="RemkKLGsjMiRwoYhnhPB-145" vertex="1">
          <mxGeometry y="223" width="178" height="22" as="geometry" />
        </mxCell>
        <mxCell id="RemkKLGsjMiRwoYhnhPB-174" value="datetime" style="shape=partialRectangle;connectable=0;fillColor=none;top=0;left=0;bottom=0;right=0;align=left;spacingLeft=2;overflow=hidden;fontSize=16;" parent="RemkKLGsjMiRwoYhnhPB-173" vertex="1">
          <mxGeometry width="48" height="22" as="geometry">
            <mxRectangle width="48" height="22" as="alternateBounds" />
          </mxGeometry>
        </mxCell>
        <mxCell id="RemkKLGsjMiRwoYhnhPB-175" value="UpdatedAt" style="shape=partialRectangle;connectable=0;fillColor=none;top=0;left=0;bottom=0;right=0;align=left;spacingLeft=2;overflow=hidden;fontSize=16;" parent="RemkKLGsjMiRwoYhnhPB-173" vertex="1">
          <mxGeometry x="48" width="130" height="22" as="geometry">
            <mxRectangle width="130" height="22" as="alternateBounds" />
          </mxGeometry>
        </mxCell>
        <mxCell id="RemkKLGsjMiRwoYhnhPB-176" value="PAYMENT_METHOD" style="shape=table;startSize=25;container=1;collapsible=0;childLayout=tableLayout;fixedRows=1;rowLines=1;fontStyle=1;align=center;resizeLast=1;fontSize=16;" parent="1" vertex="1">
          <mxGeometry x="457" y="324" width="166" height="136" as="geometry" />
        </mxCell>
        <mxCell id="RemkKLGsjMiRwoYhnhPB-177" style="shape=tableRow;horizontal=0;startSize=0;swimlaneHead=0;swimlaneBody=0;fillColor=none;collapsible=0;dropTarget=0;points=[[0,0.5],[1,0.5]];portConstraint=eastwest;top=0;left=0;right=0;bottom=0;fontSize=16;" parent="RemkKLGsjMiRwoYhnhPB-176" vertex="1">
          <mxGeometry y="25" width="166" height="22" as="geometry" />
        </mxCell>
        <mxCell id="RemkKLGsjMiRwoYhnhPB-178" value="int" style="shape=partialRectangle;connectable=0;fillColor=none;top=0;left=0;bottom=0;right=0;align=left;spacingLeft=2;overflow=hidden;fontSize=16;" parent="RemkKLGsjMiRwoYhnhPB-177" vertex="1">
          <mxGeometry width="48" height="22" as="geometry">
            <mxRectangle width="48" height="22" as="alternateBounds" />
          </mxGeometry>
        </mxCell>
        <mxCell id="RemkKLGsjMiRwoYhnhPB-179" value="PaymentMethodID" style="shape=partialRectangle;connectable=0;fillColor=none;top=0;left=0;bottom=0;right=0;align=left;spacingLeft=2;overflow=hidden;fontSize=16;" parent="RemkKLGsjMiRwoYhnhPB-177" vertex="1">
          <mxGeometry x="48" width="118" height="22" as="geometry">
            <mxRectangle width="118" height="22" as="alternateBounds" />
          </mxGeometry>
        </mxCell>
        <mxCell id="RemkKLGsjMiRwoYhnhPB-180" style="shape=tableRow;horizontal=0;startSize=0;swimlaneHead=0;swimlaneBody=0;fillColor=none;collapsible=0;dropTarget=0;points=[[0,0.5],[1,0.5]];portConstraint=eastwest;top=0;left=0;right=0;bottom=0;fontSize=16;" parent="RemkKLGsjMiRwoYhnhPB-176" vertex="1">
          <mxGeometry y="47" width="166" height="22" as="geometry" />
        </mxCell>
        <mxCell id="RemkKLGsjMiRwoYhnhPB-181" value="varchar" style="shape=partialRectangle;connectable=0;fillColor=none;top=0;left=0;bottom=0;right=0;align=left;spacingLeft=2;overflow=hidden;fontSize=16;" parent="RemkKLGsjMiRwoYhnhPB-180" vertex="1">
          <mxGeometry width="48" height="22" as="geometry">
            <mxRectangle width="48" height="22" as="alternateBounds" />
          </mxGeometry>
        </mxCell>
        <mxCell id="RemkKLGsjMiRwoYhnhPB-182" value="MethodName" style="shape=partialRectangle;connectable=0;fillColor=none;top=0;left=0;bottom=0;right=0;align=left;spacingLeft=2;overflow=hidden;fontSize=16;" parent="RemkKLGsjMiRwoYhnhPB-180" vertex="1">
          <mxGeometry x="48" width="118" height="22" as="geometry">
            <mxRectangle width="118" height="22" as="alternateBounds" />
          </mxGeometry>
        </mxCell>
        <mxCell id="RemkKLGsjMiRwoYhnhPB-183" style="shape=tableRow;horizontal=0;startSize=0;swimlaneHead=0;swimlaneBody=0;fillColor=none;collapsible=0;dropTarget=0;points=[[0,0.5],[1,0.5]];portConstraint=eastwest;top=0;left=0;right=0;bottom=0;fontSize=16;" parent="RemkKLGsjMiRwoYhnhPB-176" vertex="1">
          <mxGeometry y="69" width="166" height="22" as="geometry" />
        </mxCell>
        <mxCell id="RemkKLGsjMiRwoYhnhPB-184" value="varchar" style="shape=partialRectangle;connectable=0;fillColor=none;top=0;left=0;bottom=0;right=0;align=left;spacingLeft=2;overflow=hidden;fontSize=16;" parent="RemkKLGsjMiRwoYhnhPB-183" vertex="1">
          <mxGeometry width="48" height="22" as="geometry">
            <mxRectangle width="48" height="22" as="alternateBounds" />
          </mxGeometry>
        </mxCell>
        <mxCell id="RemkKLGsjMiRwoYhnhPB-185" value="Description" style="shape=partialRectangle;connectable=0;fillColor=none;top=0;left=0;bottom=0;right=0;align=left;spacingLeft=2;overflow=hidden;fontSize=16;" parent="RemkKLGsjMiRwoYhnhPB-183" vertex="1">
          <mxGeometry x="48" width="118" height="22" as="geometry">
            <mxRectangle width="118" height="22" as="alternateBounds" />
          </mxGeometry>
        </mxCell>
        <mxCell id="RemkKLGsjMiRwoYhnhPB-186" style="shape=tableRow;horizontal=0;startSize=0;swimlaneHead=0;swimlaneBody=0;fillColor=none;collapsible=0;dropTarget=0;points=[[0,0.5],[1,0.5]];portConstraint=eastwest;top=0;left=0;right=0;bottom=0;fontSize=16;" parent="RemkKLGsjMiRwoYhnhPB-176" vertex="1">
          <mxGeometry y="91" width="166" height="22" as="geometry" />
        </mxCell>
        <mxCell id="RemkKLGsjMiRwoYhnhPB-187" value="datetime" style="shape=partialRectangle;connectable=0;fillColor=none;top=0;left=0;bottom=0;right=0;align=left;spacingLeft=2;overflow=hidden;fontSize=16;" parent="RemkKLGsjMiRwoYhnhPB-186" vertex="1">
          <mxGeometry width="48" height="22" as="geometry">
            <mxRectangle width="48" height="22" as="alternateBounds" />
          </mxGeometry>
        </mxCell>
        <mxCell id="RemkKLGsjMiRwoYhnhPB-188" value="CreatedAt" style="shape=partialRectangle;connectable=0;fillColor=none;top=0;left=0;bottom=0;right=0;align=left;spacingLeft=2;overflow=hidden;fontSize=16;" parent="RemkKLGsjMiRwoYhnhPB-186" vertex="1">
          <mxGeometry x="48" width="118" height="22" as="geometry">
            <mxRectangle width="118" height="22" as="alternateBounds" />
          </mxGeometry>
        </mxCell>
        <mxCell id="RemkKLGsjMiRwoYhnhPB-189" style="shape=tableRow;horizontal=0;startSize=0;swimlaneHead=0;swimlaneBody=0;fillColor=none;collapsible=0;dropTarget=0;points=[[0,0.5],[1,0.5]];portConstraint=eastwest;top=0;left=0;right=0;bottom=0;fontSize=16;" parent="RemkKLGsjMiRwoYhnhPB-176" vertex="1">
          <mxGeometry y="113" width="166" height="22" as="geometry" />
        </mxCell>
        <mxCell id="RemkKLGsjMiRwoYhnhPB-190" value="datetime" style="shape=partialRectangle;connectable=0;fillColor=none;top=0;left=0;bottom=0;right=0;align=left;spacingLeft=2;overflow=hidden;fontSize=16;" parent="RemkKLGsjMiRwoYhnhPB-189" vertex="1">
          <mxGeometry width="48" height="22" as="geometry">
            <mxRectangle width="48" height="22" as="alternateBounds" />
          </mxGeometry>
        </mxCell>
        <mxCell id="RemkKLGsjMiRwoYhnhPB-191" value="UpdatedAt" style="shape=partialRectangle;connectable=0;fillColor=none;top=0;left=0;bottom=0;right=0;align=left;spacingLeft=2;overflow=hidden;fontSize=16;" parent="RemkKLGsjMiRwoYhnhPB-189" vertex="1">
          <mxGeometry x="48" width="118" height="22" as="geometry">
            <mxRectangle width="118" height="22" as="alternateBounds" />
          </mxGeometry>
        </mxCell>
        <mxCell id="RemkKLGsjMiRwoYhnhPB-192" value="AUDIT_LOG" style="shape=table;startSize=25;container=1;collapsible=0;childLayout=tableLayout;fixedRows=1;rowLines=1;fontStyle=1;align=center;resizeLast=1;fontSize=16;" parent="1" vertex="1">
          <mxGeometry x="910" y="31" width="136" height="159" as="geometry" />
        </mxCell>
        <mxCell id="RemkKLGsjMiRwoYhnhPB-193" style="shape=tableRow;horizontal=0;startSize=0;swimlaneHead=0;swimlaneBody=0;fillColor=none;collapsible=0;dropTarget=0;points=[[0,0.5],[1,0.5]];portConstraint=eastwest;top=0;left=0;right=0;bottom=0;fontSize=16;" parent="RemkKLGsjMiRwoYhnhPB-192" vertex="1">
          <mxGeometry y="25" width="136" height="22" as="geometry" />
        </mxCell>
        <mxCell id="RemkKLGsjMiRwoYhnhPB-194" value="int" style="shape=partialRectangle;connectable=0;fillColor=none;top=0;left=0;bottom=0;right=0;align=left;spacingLeft=2;overflow=hidden;fontSize=16;" parent="RemkKLGsjMiRwoYhnhPB-193" vertex="1">
          <mxGeometry width="48" height="22" as="geometry">
            <mxRectangle width="48" height="22" as="alternateBounds" />
          </mxGeometry>
        </mxCell>
        <mxCell id="RemkKLGsjMiRwoYhnhPB-195" value="LogID" style="shape=partialRectangle;connectable=0;fillColor=none;top=0;left=0;bottom=0;right=0;align=left;spacingLeft=2;overflow=hidden;fontSize=16;" parent="RemkKLGsjMiRwoYhnhPB-193" vertex="1">
          <mxGeometry x="48" width="88" height="22" as="geometry">
            <mxRectangle width="88" height="22" as="alternateBounds" />
          </mxGeometry>
        </mxCell>
        <mxCell id="RemkKLGsjMiRwoYhnhPB-196" style="shape=tableRow;horizontal=0;startSize=0;swimlaneHead=0;swimlaneBody=0;fillColor=none;collapsible=0;dropTarget=0;points=[[0,0.5],[1,0.5]];portConstraint=eastwest;top=0;left=0;right=0;bottom=0;fontSize=16;" parent="RemkKLGsjMiRwoYhnhPB-192" vertex="1">
          <mxGeometry y="47" width="136" height="22" as="geometry" />
        </mxCell>
        <mxCell id="RemkKLGsjMiRwoYhnhPB-197" value="varchar" style="shape=partialRectangle;connectable=0;fillColor=none;top=0;left=0;bottom=0;right=0;align=left;spacingLeft=2;overflow=hidden;fontSize=16;" parent="RemkKLGsjMiRwoYhnhPB-196" vertex="1">
          <mxGeometry width="48" height="22" as="geometry">
            <mxRectangle width="48" height="22" as="alternateBounds" />
          </mxGeometry>
        </mxCell>
        <mxCell id="RemkKLGsjMiRwoYhnhPB-198" value="EntityType" style="shape=partialRectangle;connectable=0;fillColor=none;top=0;left=0;bottom=0;right=0;align=left;spacingLeft=2;overflow=hidden;fontSize=16;" parent="RemkKLGsjMiRwoYhnhPB-196" vertex="1">
          <mxGeometry x="48" width="88" height="22" as="geometry">
            <mxRectangle width="88" height="22" as="alternateBounds" />
          </mxGeometry>
        </mxCell>
        <mxCell id="RemkKLGsjMiRwoYhnhPB-199" style="shape=tableRow;horizontal=0;startSize=0;swimlaneHead=0;swimlaneBody=0;fillColor=none;collapsible=0;dropTarget=0;points=[[0,0.5],[1,0.5]];portConstraint=eastwest;top=0;left=0;right=0;bottom=0;fontSize=16;" parent="RemkKLGsjMiRwoYhnhPB-192" vertex="1">
          <mxGeometry y="69" width="136" height="22" as="geometry" />
        </mxCell>
        <mxCell id="RemkKLGsjMiRwoYhnhPB-200" value="int" style="shape=partialRectangle;connectable=0;fillColor=none;top=0;left=0;bottom=0;right=0;align=left;spacingLeft=2;overflow=hidden;fontSize=16;" parent="RemkKLGsjMiRwoYhnhPB-199" vertex="1">
          <mxGeometry width="48" height="22" as="geometry">
            <mxRectangle width="48" height="22" as="alternateBounds" />
          </mxGeometry>
        </mxCell>
        <mxCell id="RemkKLGsjMiRwoYhnhPB-201" value="EntityID" style="shape=partialRectangle;connectable=0;fillColor=none;top=0;left=0;bottom=0;right=0;align=left;spacingLeft=2;overflow=hidden;fontSize=16;" parent="RemkKLGsjMiRwoYhnhPB-199" vertex="1">
          <mxGeometry x="48" width="88" height="22" as="geometry">
            <mxRectangle width="88" height="22" as="alternateBounds" />
          </mxGeometry>
        </mxCell>
        <mxCell id="RemkKLGsjMiRwoYhnhPB-202" style="shape=tableRow;horizontal=0;startSize=0;swimlaneHead=0;swimlaneBody=0;fillColor=none;collapsible=0;dropTarget=0;points=[[0,0.5],[1,0.5]];portConstraint=eastwest;top=0;left=0;right=0;bottom=0;fontSize=16;" parent="RemkKLGsjMiRwoYhnhPB-192" vertex="1">
          <mxGeometry y="91" width="136" height="22" as="geometry" />
        </mxCell>
        <mxCell id="RemkKLGsjMiRwoYhnhPB-203" value="varchar" style="shape=partialRectangle;connectable=0;fillColor=none;top=0;left=0;bottom=0;right=0;align=left;spacingLeft=2;overflow=hidden;fontSize=16;" parent="RemkKLGsjMiRwoYhnhPB-202" vertex="1">
          <mxGeometry width="48" height="22" as="geometry">
            <mxRectangle width="48" height="22" as="alternateBounds" />
          </mxGeometry>
        </mxCell>
        <mxCell id="RemkKLGsjMiRwoYhnhPB-204" value="Action" style="shape=partialRectangle;connectable=0;fillColor=none;top=0;left=0;bottom=0;right=0;align=left;spacingLeft=2;overflow=hidden;fontSize=16;" parent="RemkKLGsjMiRwoYhnhPB-202" vertex="1">
          <mxGeometry x="48" width="88" height="22" as="geometry">
            <mxRectangle width="88" height="22" as="alternateBounds" />
          </mxGeometry>
        </mxCell>
        <mxCell id="RemkKLGsjMiRwoYhnhPB-205" style="shape=tableRow;horizontal=0;startSize=0;swimlaneHead=0;swimlaneBody=0;fillColor=none;collapsible=0;dropTarget=0;points=[[0,0.5],[1,0.5]];portConstraint=eastwest;top=0;left=0;right=0;bottom=0;fontSize=16;" parent="RemkKLGsjMiRwoYhnhPB-192" vertex="1">
          <mxGeometry y="113" width="136" height="22" as="geometry" />
        </mxCell>
        <mxCell id="RemkKLGsjMiRwoYhnhPB-206" value="datetime" style="shape=partialRectangle;connectable=0;fillColor=none;top=0;left=0;bottom=0;right=0;align=left;spacingLeft=2;overflow=hidden;fontSize=16;" parent="RemkKLGsjMiRwoYhnhPB-205" vertex="1">
          <mxGeometry width="48" height="22" as="geometry">
            <mxRectangle width="48" height="22" as="alternateBounds" />
          </mxGeometry>
        </mxCell>
        <mxCell id="RemkKLGsjMiRwoYhnhPB-207" value="Timestamp" style="shape=partialRectangle;connectable=0;fillColor=none;top=0;left=0;bottom=0;right=0;align=left;spacingLeft=2;overflow=hidden;fontSize=16;" parent="RemkKLGsjMiRwoYhnhPB-205" vertex="1">
          <mxGeometry x="48" width="88" height="22" as="geometry">
            <mxRectangle width="88" height="22" as="alternateBounds" />
          </mxGeometry>
        </mxCell>
        <mxCell id="RemkKLGsjMiRwoYhnhPB-208" style="shape=tableRow;horizontal=0;startSize=0;swimlaneHead=0;swimlaneBody=0;fillColor=none;collapsible=0;dropTarget=0;points=[[0,0.5],[1,0.5]];portConstraint=eastwest;top=0;left=0;right=0;bottom=0;fontSize=16;" parent="RemkKLGsjMiRwoYhnhPB-192" vertex="1">
          <mxGeometry y="135" width="136" height="22" as="geometry" />
        </mxCell>
        <mxCell id="RemkKLGsjMiRwoYhnhPB-209" value="text" style="shape=partialRectangle;connectable=0;fillColor=none;top=0;left=0;bottom=0;right=0;align=left;spacingLeft=2;overflow=hidden;fontSize=16;" parent="RemkKLGsjMiRwoYhnhPB-208" vertex="1">
          <mxGeometry width="48" height="22" as="geometry">
            <mxRectangle width="48" height="22" as="alternateBounds" />
          </mxGeometry>
        </mxCell>
        <mxCell id="RemkKLGsjMiRwoYhnhPB-210" value="Details" style="shape=partialRectangle;connectable=0;fillColor=none;top=0;left=0;bottom=0;right=0;align=left;spacingLeft=2;overflow=hidden;fontSize=16;" parent="RemkKLGsjMiRwoYhnhPB-208" vertex="1">
          <mxGeometry x="48" width="88" height="22" as="geometry">
            <mxRectangle width="88" height="22" as="alternateBounds" />
          </mxGeometry>
        </mxCell>
        <mxCell id="RemkKLGsjMiRwoYhnhPB-211" value="has" style="curved=1;startArrow=ERmandOne;startSize=10;;endArrow=ERmany;endSize=10;;exitX=0.5;exitY=1;entryX=1;entryY=0.33;rounded=0;fontSize=16;" parent="1" source="RemkKLGsjMiRwoYhnhPB-1" target="RemkKLGsjMiRwoYhnhPB-67" edge="1">
          <mxGeometry relative="1" as="geometry">
            <Array as="points">
              <mxPoint x="897" y="533" />
            </Array>
          </mxGeometry>
        </mxCell>
        <mxCell id="RemkKLGsjMiRwoYhnhPB-212" value="has" style="curved=1;startArrow=ERmandOne;startSize=10;;endArrow=ERmany;endSize=10;;exitX=1;exitY=0.86;entryX=0.5;entryY=0;rounded=0;fontSize=16;" parent="1" source="RemkKLGsjMiRwoYhnhPB-23" target="RemkKLGsjMiRwoYhnhPB-1" edge="1">
          <mxGeometry relative="1" as="geometry">
            <Array as="points">
              <mxPoint x="897" y="251" />
            </Array>
          </mxGeometry>
        </mxCell>
        <mxCell id="RemkKLGsjMiRwoYhnhPB-213" value="processes" style="curved=1;startArrow=ERmandOne;startSize=10;;endArrow=ERmany;endSize=10;;exitX=0.44;exitY=1;entryX=1;entryY=0.15;rounded=0;fontSize=16;" parent="1" source="RemkKLGsjMiRwoYhnhPB-23" target="RemkKLGsjMiRwoYhnhPB-67" edge="1">
          <mxGeometry relative="1" as="geometry">
            <Array as="points">
              <mxPoint x="723" y="251" />
              <mxPoint x="723" y="533" />
            </Array>
          </mxGeometry>
        </mxCell>
        <mxCell id="RemkKLGsjMiRwoYhnhPB-214" value="receives" style="curved=1;startArrow=ERmandOne;startSize=10;;endArrow=ERmany;endSize=10;;exitX=0.9;exitY=1;entryX=0;entryY=0.18;rounded=0;fontSize=16;" parent="1" source="RemkKLGsjMiRwoYhnhPB-45" target="RemkKLGsjMiRwoYhnhPB-67" edge="1">
          <mxGeometry relative="1" as="geometry">
            <Array as="points">
              <mxPoint x="374" y="533" />
            </Array>
          </mxGeometry>
        </mxCell>
        <mxCell id="RemkKLGsjMiRwoYhnhPB-215" value="involves" style="curved=1;startArrow=ERmandOne;startSize=10;;endArrow=ERmany;endSize=10;;exitX=0.34;exitY=1;entryX=1;entryY=0.04;rounded=0;fontSize=16;" parent="1" source="RemkKLGsjMiRwoYhnhPB-45" target="RemkKLGsjMiRwoYhnhPB-145" edge="1">
          <mxGeometry relative="1" as="geometry">
            <Array as="points">
              <mxPoint x="246" y="533" />
            </Array>
          </mxGeometry>
        </mxCell>
        <mxCell id="RemkKLGsjMiRwoYhnhPB-216" value="involves" style="curved=1;startArrow=ERmandOne;startSize=10;;endArrow=ERmany;endSize=10;;exitX=0;exitY=0.59;entryX=0.5;entryY=0;rounded=0;fontSize=16;" parent="1" source="RemkKLGsjMiRwoYhnhPB-23" target="RemkKLGsjMiRwoYhnhPB-145" edge="1">
          <mxGeometry relative="1" as="geometry">
            <Array as="points">
              <mxPoint x="150" y="190" />
              <mxPoint x="109" y="251" />
            </Array>
          </mxGeometry>
        </mxCell>
        <mxCell id="RemkKLGsjMiRwoYhnhPB-217" value="has" style="curved=1;startArrow=ERmandOne;startSize=10;;endArrow=ERmany;endSize=10;;exitX=0.5;exitY=1;entryX=0.5;entryY=0;rounded=0;fontSize=16;" parent="1" source="RemkKLGsjMiRwoYhnhPB-67" target="RemkKLGsjMiRwoYhnhPB-98" edge="1">
          <mxGeometry relative="1" as="geometry">
            <Array as="points" />
          </mxGeometry>
        </mxCell>
        <mxCell id="RemkKLGsjMiRwoYhnhPB-218" value="has" style="curved=1;startArrow=ERmandOne;startSize=10;;endArrow=ERmany;endSize=10;;exitX=0.5;exitY=1;entryX=0.5;entryY=0;rounded=0;fontSize=16;" parent="1" source="RemkKLGsjMiRwoYhnhPB-98" target="RemkKLGsjMiRwoYhnhPB-120" edge="1">
          <mxGeometry relative="1" as="geometry">
            <Array as="points" />
          </mxGeometry>
        </mxCell>
        <mxCell id="RemkKLGsjMiRwoYhnhPB-219" value="uses" style="curved=1;startArrow=ERmandOne;startSize=10;;endArrow=ERmany;endSize=10;;exitX=0.5;exitY=1;entryX=0.43;entryY=0;rounded=0;fontSize=16;" parent="1" source="RemkKLGsjMiRwoYhnhPB-176" target="RemkKLGsjMiRwoYhnhPB-67" edge="1">
          <mxGeometry relative="1" as="geometry">
            <Array as="points">
              <mxPoint x="540" y="533" />
            </Array>
          </mxGeometry>
        </mxCell>
      </root>
    </mxGraphModel>
  </diagram>
  <diagram id="xOxJ0P3FtF_c1kYSlszS" name="PMNT-Data Flow">
    <mxGraphModel dx="1222" dy="636" grid="1" gridSize="10" guides="1" tooltips="1" connect="1" arrows="1" fold="1" page="1" pageScale="1" pageWidth="850" pageHeight="1100" math="0" shadow="0">
      <root>
        <mxCell id="0" />
        <mxCell id="1" parent="0" />
        <mxCell id="AlQpdFmq3ZEpjVkjQlgx-1" value="Customer" style="whiteSpace=wrap;strokeWidth=2;fontSize=16;" vertex="1" parent="1">
          <mxGeometry x="532" y="20" width="84" height="34" as="geometry" />
        </mxCell>
        <mxCell id="AlQpdFmq3ZEpjVkjQlgx-2" value="Bank System" style="whiteSpace=wrap;strokeWidth=2;fontSize=16;" vertex="1" parent="1">
          <mxGeometry x="522" y="123" width="105" height="34" as="geometry" />
        </mxCell>
        <mxCell id="AlQpdFmq3ZEpjVkjQlgx-3" value="SADAD System" style="whiteSpace=wrap;strokeWidth=2;fontSize=16;" vertex="1" parent="1">
          <mxGeometry x="414" y="225" width="117" height="34" as="geometry" />
        </mxCell>
        <mxCell id="AlQpdFmq3ZEpjVkjQlgx-4" value="Biller System" style="whiteSpace=wrap;strokeWidth=2;fontSize=16;" vertex="1" parent="1">
          <mxGeometry x="91" y="328" width="109" height="34" as="geometry" />
        </mxCell>
        <mxCell id="AlQpdFmq3ZEpjVkjQlgx-5" value="Clearing System" style="whiteSpace=wrap;strokeWidth=2;fontSize=16;" vertex="1" parent="1">
          <mxGeometry x="506" y="328" width="130" height="34" as="geometry" />
        </mxCell>
        <mxCell id="AlQpdFmq3ZEpjVkjQlgx-6" value="Reconciliation System" style="whiteSpace=wrap;strokeWidth=2;fontSize=16;" vertex="1" parent="1">
          <mxGeometry x="871" y="328" width="172" height="34" as="geometry" />
        </mxCell>
        <mxCell id="AlQpdFmq3ZEpjVkjQlgx-7" value="Initiates Payment" style="curved=1;startArrow=none;endArrow=block;exitX=0.21;exitY=0.99;entryX=0.27;entryY=-0.01;rounded=0;fontSize=16;" edge="1" parent="1" source="AlQpdFmq3ZEpjVkjQlgx-1" target="AlQpdFmq3ZEpjVkjQlgx-2">
          <mxGeometry relative="1" as="geometry">
            <Array as="points">
              <mxPoint x="500" y="88" />
            </Array>
          </mxGeometry>
        </mxCell>
        <mxCell id="AlQpdFmq3ZEpjVkjQlgx-8" value="Sends Payment Request" style="curved=1;startArrow=none;endArrow=block;exitX=0;exitY=0.74;entryX=0;entryY=0.08;rounded=0;fontSize=16;" edge="1" parent="1" source="AlQpdFmq3ZEpjVkjQlgx-2" target="AlQpdFmq3ZEpjVkjQlgx-3">
          <mxGeometry relative="1" as="geometry">
            <Array as="points">
              <mxPoint x="263" y="191" />
            </Array>
          </mxGeometry>
        </mxCell>
        <mxCell id="AlQpdFmq3ZEpjVkjQlgx-9" value="Validates and Processes Payment" style="curved=1;startArrow=none;endArrow=block;exitX=0;exitY=0.69;entryX=0.12;entryY=-0.01;rounded=0;fontSize=16;" edge="1" parent="1" source="AlQpdFmq3ZEpjVkjQlgx-3" target="AlQpdFmq3ZEpjVkjQlgx-4">
          <mxGeometry relative="1" as="geometry">
            <Array as="points">
              <mxPoint x="20" y="293" />
            </Array>
          </mxGeometry>
        </mxCell>
        <mxCell id="AlQpdFmq3ZEpjVkjQlgx-10" value="Sends Payment Confirmation" style="curved=1;startArrow=none;endArrow=block;exitX=0.85;exitY=-0.01;entryX=0;entryY=0.92;rounded=0;fontSize=16;" edge="1" parent="1" source="AlQpdFmq3ZEpjVkjQlgx-4" target="AlQpdFmq3ZEpjVkjQlgx-3">
          <mxGeometry relative="1" as="geometry">
            <Array as="points">
              <mxPoint x="262" y="293" />
            </Array>
          </mxGeometry>
        </mxCell>
        <mxCell id="AlQpdFmq3ZEpjVkjQlgx-11" value="Sends Payment Status" style="curved=1;startArrow=none;endArrow=block;exitX=1;exitY=0.27;entryX=1;entryY=0.75;rounded=0;fontSize=16;" edge="1" parent="1" source="AlQpdFmq3ZEpjVkjQlgx-3" target="AlQpdFmq3ZEpjVkjQlgx-2">
          <mxGeometry relative="1" as="geometry">
            <Array as="points">
              <mxPoint x="867" y="191" />
            </Array>
          </mxGeometry>
        </mxCell>
        <mxCell id="AlQpdFmq3ZEpjVkjQlgx-12" value="Notifies Customer" style="curved=1;startArrow=none;endArrow=block;exitX=0.73;exitY=-0.01;entryX=0.79;entryY=0.99;rounded=0;fontSize=16;" edge="1" parent="1" source="AlQpdFmq3ZEpjVkjQlgx-2" target="AlQpdFmq3ZEpjVkjQlgx-1">
          <mxGeometry relative="1" as="geometry">
            <Array as="points">
              <mxPoint x="648" y="88" />
            </Array>
          </mxGeometry>
        </mxCell>
        <mxCell id="AlQpdFmq3ZEpjVkjQlgx-13" value="Clearing and Settlement" style="curved=1;startArrow=none;endArrow=block;exitX=0.5;exitY=0.99;entryX=0.25;entryY=-0.01;rounded=0;fontSize=16;" edge="1" parent="1" source="AlQpdFmq3ZEpjVkjQlgx-3" target="AlQpdFmq3ZEpjVkjQlgx-5">
          <mxGeometry relative="1" as="geometry">
            <Array as="points">
              <mxPoint x="472" y="293" />
            </Array>
          </mxGeometry>
        </mxCell>
        <mxCell id="AlQpdFmq3ZEpjVkjQlgx-14" value="Settlement Confirmation" style="curved=1;startArrow=none;endArrow=block;exitX=0.76;exitY=-0.01;entryX=1;entryY=0.93;rounded=0;fontSize=16;" edge="1" parent="1" source="AlQpdFmq3ZEpjVkjQlgx-5" target="AlQpdFmq3ZEpjVkjQlgx-3">
          <mxGeometry relative="1" as="geometry">
            <Array as="points">
              <mxPoint x="677" y="293" />
            </Array>
          </mxGeometry>
        </mxCell>
        <mxCell id="AlQpdFmq3ZEpjVkjQlgx-15" value="Reconciliation Process" style="curved=1;startArrow=none;endArrow=block;exitX=1;exitY=0.72;entryX=0.33;entryY=-0.01;rounded=0;fontSize=16;" edge="1" parent="1" source="AlQpdFmq3ZEpjVkjQlgx-3" target="AlQpdFmq3ZEpjVkjQlgx-6">
          <mxGeometry relative="1" as="geometry">
            <Array as="points">
              <mxPoint x="865" y="293" />
            </Array>
          </mxGeometry>
        </mxCell>
        <mxCell id="AlQpdFmq3ZEpjVkjQlgx-16" value="Reconciliation Report" style="curved=1;startArrow=none;endArrow=block;exitX=0.52;exitY=-0.01;entryX=1;entryY=0.68;rounded=0;fontSize=16;" edge="1" parent="1" source="AlQpdFmq3ZEpjVkjQlgx-6" target="AlQpdFmq3ZEpjVkjQlgx-2">
          <mxGeometry relative="1" as="geometry">
            <Array as="points">
              <mxPoint x="965" y="293" />
              <mxPoint x="965" y="191" />
            </Array>
          </mxGeometry>
        </mxCell>
        <mxCell id="AlQpdFmq3ZEpjVkjQlgx-17" value="Reconciliation Confirmation" style="curved=1;startArrow=none;endArrow=block;exitX=0.16;exitY=0.98;entryX=0.48;entryY=0;rounded=0;fontSize=16;" edge="1" parent="1" source="AlQpdFmq3ZEpjVkjQlgx-2" target="AlQpdFmq3ZEpjVkjQlgx-3">
          <mxGeometry relative="1" as="geometry">
            <Array as="points">
              <mxPoint x="467" y="191" />
            </Array>
          </mxGeometry>
        </mxCell>
      </root>
    </mxGraphModel>
  </diagram>
  <diagram id="jA0OtoPu4Iffb3rKmr9b" name="PMNT_SEQ">
    <mxGraphModel dx="1222" dy="636" grid="1" gridSize="10" guides="1" tooltips="1" connect="1" arrows="1" fold="1" page="1" pageScale="1" pageWidth="850" pageHeight="1100" math="0" shadow="0">
      <root>
        <mxCell id="0" />
        <mxCell id="1" parent="0" />
        <mxCell id="ztjTN2j9rBXCHOiuNAcV-1" value="Customer" style="shape=umlLifeline;perimeter=lifelinePerimeter;whiteSpace=wrap;container=1;dropTarget=0;collapsible=0;recursiveResize=0;outlineConnect=0;portConstraint=eastwest;newEdgeStyle={&quot;edgeStyle&quot;:&quot;elbowEdgeStyle&quot;,&quot;elbow&quot;:&quot;vertical&quot;,&quot;curved&quot;:0,&quot;rounded&quot;:0};size=65;fontSize=15;" vertex="1" parent="1">
          <mxGeometry x="20" y="20" width="150" height="784" as="geometry" />
        </mxCell>
        <mxCell id="ztjTN2j9rBXCHOiuNAcV-2" value="BankSystem" style="shape=umlLifeline;perimeter=lifelinePerimeter;whiteSpace=wrap;container=1;dropTarget=0;collapsible=0;recursiveResize=0;outlineConnect=0;portConstraint=eastwest;newEdgeStyle={&quot;edgeStyle&quot;:&quot;elbowEdgeStyle&quot;,&quot;elbow&quot;:&quot;vertical&quot;,&quot;curved&quot;:0,&quot;rounded&quot;:0};size=65;fontSize=15;" vertex="1" parent="1">
          <mxGeometry x="295" y="20" width="150" height="784" as="geometry" />
        </mxCell>
        <mxCell id="ztjTN2j9rBXCHOiuNAcV-3" value="SADADSystem" style="shape=umlLifeline;perimeter=lifelinePerimeter;whiteSpace=wrap;container=1;dropTarget=0;collapsible=0;recursiveResize=0;outlineConnect=0;portConstraint=eastwest;newEdgeStyle={&quot;edgeStyle&quot;:&quot;elbowEdgeStyle&quot;,&quot;elbow&quot;:&quot;vertical&quot;,&quot;curved&quot;:0,&quot;rounded&quot;:0};size=65;fontSize=15;" vertex="1" parent="1">
          <mxGeometry x="558" y="20" width="150" height="784" as="geometry" />
        </mxCell>
        <mxCell id="ztjTN2j9rBXCHOiuNAcV-4" value="BillerSystem" style="shape=umlLifeline;perimeter=lifelinePerimeter;whiteSpace=wrap;container=1;dropTarget=0;collapsible=0;recursiveResize=0;outlineConnect=0;portConstraint=eastwest;newEdgeStyle={&quot;edgeStyle&quot;:&quot;elbowEdgeStyle&quot;,&quot;elbow&quot;:&quot;vertical&quot;,&quot;curved&quot;:0,&quot;rounded&quot;:0};size=65;fontSize=15;" vertex="1" parent="1">
          <mxGeometry x="862" y="20" width="150" height="784" as="geometry" />
        </mxCell>
        <mxCell id="ztjTN2j9rBXCHOiuNAcV-5" value="ClearingSystem" style="shape=umlLifeline;perimeter=lifelinePerimeter;whiteSpace=wrap;container=1;dropTarget=0;collapsible=0;recursiveResize=0;outlineConnect=0;portConstraint=eastwest;newEdgeStyle={&quot;edgeStyle&quot;:&quot;elbowEdgeStyle&quot;,&quot;elbow&quot;:&quot;vertical&quot;,&quot;curved&quot;:0,&quot;rounded&quot;:0};size=65;fontSize=15;" vertex="1" parent="1">
          <mxGeometry x="1062" y="20" width="150" height="784" as="geometry" />
        </mxCell>
        <mxCell id="ztjTN2j9rBXCHOiuNAcV-6" value="ReconciliationSystem" style="shape=umlLifeline;perimeter=lifelinePerimeter;whiteSpace=wrap;container=1;dropTarget=0;collapsible=0;recursiveResize=0;outlineConnect=0;portConstraint=eastwest;newEdgeStyle={&quot;edgeStyle&quot;:&quot;elbowEdgeStyle&quot;,&quot;elbow&quot;:&quot;vertical&quot;,&quot;curved&quot;:0,&quot;rounded&quot;:0};size=65;fontSize=15;" vertex="1" parent="1">
          <mxGeometry x="1262" y="20" width="168" height="784" as="geometry" />
        </mxCell>
        <mxCell id="ztjTN2j9rBXCHOiuNAcV-7" value="Initiates Payment" style="verticalAlign=bottom;endArrow=block;edgeStyle=elbowEdgeStyle;elbow=vertical;curved=0;rounded=0;fontSize=15;" edge="1" parent="1" source="ztjTN2j9rBXCHOiuNAcV-1" target="ztjTN2j9rBXCHOiuNAcV-2">
          <mxGeometry relative="1" as="geometry">
            <Array as="points">
              <mxPoint x="241" y="127" />
            </Array>
          </mxGeometry>
        </mxCell>
        <mxCell id="ztjTN2j9rBXCHOiuNAcV-8" value="Sends Payment Request" style="verticalAlign=bottom;endArrow=block;edgeStyle=elbowEdgeStyle;elbow=vertical;curved=0;rounded=0;fontSize=15;" edge="1" parent="1" source="ztjTN2j9rBXCHOiuNAcV-2" target="ztjTN2j9rBXCHOiuNAcV-3">
          <mxGeometry relative="1" as="geometry">
            <Array as="points">
              <mxPoint x="510" y="179" />
            </Array>
          </mxGeometry>
        </mxCell>
        <mxCell id="ztjTN2j9rBXCHOiuNAcV-9" value="Validates and Processes Payment" style="verticalAlign=bottom;endArrow=block;edgeStyle=elbowEdgeStyle;elbow=vertical;curved=0;rounded=0;fontSize=15;" edge="1" parent="1" source="ztjTN2j9rBXCHOiuNAcV-3" target="ztjTN2j9rBXCHOiuNAcV-4">
          <mxGeometry relative="1" as="geometry">
            <Array as="points">
              <mxPoint x="794" y="231" />
            </Array>
          </mxGeometry>
        </mxCell>
        <mxCell id="ztjTN2j9rBXCHOiuNAcV-10" value="Sends Payment Confirmation" style="verticalAlign=bottom;endArrow=block;edgeStyle=elbowEdgeStyle;elbow=vertical;curved=0;rounded=0;dashed=1;dashPattern=2 3;fontSize=15;" edge="1" parent="1" source="ztjTN2j9rBXCHOiuNAcV-4" target="ztjTN2j9rBXCHOiuNAcV-3">
          <mxGeometry relative="1" as="geometry">
            <Array as="points">
              <mxPoint x="797" y="283" />
            </Array>
          </mxGeometry>
        </mxCell>
        <mxCell id="ztjTN2j9rBXCHOiuNAcV-11" value="Sends Payment Status" style="verticalAlign=bottom;endArrow=block;edgeStyle=elbowEdgeStyle;elbow=vertical;curved=0;rounded=0;dashed=1;dashPattern=2 3;fontSize=15;" edge="1" parent="1" source="ztjTN2j9rBXCHOiuNAcV-3" target="ztjTN2j9rBXCHOiuNAcV-2">
          <mxGeometry relative="1" as="geometry">
            <Array as="points">
              <mxPoint x="513" y="335" />
            </Array>
          </mxGeometry>
        </mxCell>
        <mxCell id="ztjTN2j9rBXCHOiuNAcV-12" value="Notifies Payment Status" style="verticalAlign=bottom;endArrow=block;edgeStyle=elbowEdgeStyle;elbow=vertical;curved=0;rounded=0;dashed=1;dashPattern=2 3;fontSize=15;" edge="1" parent="1" source="ztjTN2j9rBXCHOiuNAcV-2" target="ztjTN2j9rBXCHOiuNAcV-1">
          <mxGeometry relative="1" as="geometry">
            <Array as="points">
              <mxPoint x="244" y="387" />
            </Array>
          </mxGeometry>
        </mxCell>
        <mxCell id="ztjTN2j9rBXCHOiuNAcV-13" value="Sends Clearing Request" style="verticalAlign=bottom;endArrow=block;edgeStyle=elbowEdgeStyle;elbow=vertical;curved=0;rounded=0;fontSize=15;" edge="1" parent="1" source="ztjTN2j9rBXCHOiuNAcV-3" target="ztjTN2j9rBXCHOiuNAcV-5">
          <mxGeometry relative="1" as="geometry">
            <Array as="points">
              <mxPoint x="894" y="439" />
            </Array>
          </mxGeometry>
        </mxCell>
        <mxCell id="ztjTN2j9rBXCHOiuNAcV-14" value="Sends Clearing Confirmation" style="verticalAlign=bottom;endArrow=block;edgeStyle=elbowEdgeStyle;elbow=vertical;curved=0;rounded=0;dashed=1;dashPattern=2 3;fontSize=15;" edge="1" parent="1" source="ztjTN2j9rBXCHOiuNAcV-5" target="ztjTN2j9rBXCHOiuNAcV-3">
          <mxGeometry relative="1" as="geometry">
            <Array as="points">
              <mxPoint x="897" y="491" />
            </Array>
          </mxGeometry>
        </mxCell>
        <mxCell id="ztjTN2j9rBXCHOiuNAcV-15" value="Initiates Reconciliation" style="verticalAlign=bottom;endArrow=block;edgeStyle=elbowEdgeStyle;elbow=vertical;curved=0;rounded=0;fontSize=15;" edge="1" parent="1" source="ztjTN2j9rBXCHOiuNAcV-3" target="ztjTN2j9rBXCHOiuNAcV-6">
          <mxGeometry relative="1" as="geometry">
            <Array as="points">
              <mxPoint x="998" y="543" />
            </Array>
          </mxGeometry>
        </mxCell>
        <mxCell id="ztjTN2j9rBXCHOiuNAcV-16" value="Sends Reconciliation Report" style="verticalAlign=bottom;endArrow=block;edgeStyle=elbowEdgeStyle;elbow=vertical;curved=0;rounded=0;dashed=1;dashPattern=2 3;fontSize=15;" edge="1" parent="1" source="ztjTN2j9rBXCHOiuNAcV-6" target="ztjTN2j9rBXCHOiuNAcV-3">
          <mxGeometry relative="1" as="geometry">
            <Array as="points">
              <mxPoint x="1001" y="595" />
            </Array>
          </mxGeometry>
        </mxCell>
        <mxCell id="ztjTN2j9rBXCHOiuNAcV-17" value="Sends Reconciliation Status" style="verticalAlign=bottom;endArrow=block;edgeStyle=elbowEdgeStyle;elbow=vertical;curved=0;rounded=0;dashed=1;dashPattern=2 3;fontSize=15;" edge="1" parent="1" source="ztjTN2j9rBXCHOiuNAcV-3" target="ztjTN2j9rBXCHOiuNAcV-2">
          <mxGeometry relative="1" as="geometry">
            <Array as="points">
              <mxPoint x="513" y="647" />
            </Array>
          </mxGeometry>
        </mxCell>
        <mxCell id="ztjTN2j9rBXCHOiuNAcV-18" value="Notifies Reconciliation Status" style="verticalAlign=bottom;endArrow=block;edgeStyle=elbowEdgeStyle;elbow=vertical;curved=0;rounded=0;dashed=1;dashPattern=2 3;fontSize=15;" edge="1" parent="1" source="ztjTN2j9rBXCHOiuNAcV-2" target="ztjTN2j9rBXCHOiuNAcV-1">
          <mxGeometry relative="1" as="geometry">
            <Array as="points">
              <mxPoint x="244" y="699" />
            </Array>
          </mxGeometry>
        </mxCell>
      </root>
    </mxGraphModel>
  </diagram>
  <diagram id="Hna3Q6ucY5cl4RlJuwmh" name="Page-4">
    <mxGraphModel dx="1222" dy="636" grid="1" gridSize="10" guides="1" tooltips="1" connect="1" arrows="1" fold="1" page="1" pageScale="1" pageWidth="850" pageHeight="1100" math="0" shadow="0">
      <root>
        <mxCell id="0" />
        <mxCell id="1" parent="0" />
      </root>
    </mxGraphModel>
  </diagram>
</mxfile>
